<?xml version="1.0" standalone="no"?>
<!DOCTYPE svg PUBLIC "-//W3C//DTD SVG 1.1//EN" "http://www.w3.org/Graphics/SVG/1.1/DTD/svg11.dtd" >
<svg xmlns="http://www.w3.org/2000/svg" xmlns:xlink="http://www.w3.org/1999/xlink" version="1.1">
<metadata>
Created by FontForge 20170910 at Tue Jan 28 12:01:41 2014
 By Jimmy Wärting
Copyright 2014 Adobe Systems Incorporated. All rights reserved.
</metadata>
<defs>
<font id="OstrichSans-Medium" horiz-adv-x="356" >
  <font-face 
    font-family="Ostrich Sans Medium"
    font-weight="400"
    font-stretch="normal"
    units-per-em="1000"
    panose-1="2 0 5 8 0 0 0 2 0 4"
    ascent="800"
    descent="-200"
    x-height="674"
    cap-height="674"
    bbox="-106 -157.344 626 808"
    underline-thickness="50"
    underline-position="-75"
    unicode-range="U+000D-F8FF"
  />
<missing-glyph horiz-adv-x="210" 
 />
    <glyph glyph-name=".notdef" horiz-adv-x="210" 
 />
    <glyph glyph-name="A" unicode="A" horiz-adv-x="392" 
d="M312 0l-46 206h-178l-46 -206h-32l53 234v3l102 437h25l154 -674h-32zM177 589l-81 -352h163z" />
    <glyph glyph-name="B" unicode="B" horiz-adv-x="336" 
d="M128 0h-111v674h111c103 0 149 -59 149 -176c0 -58 -12 -102 -35 -131c-11 -13 -22 -22 -37 -30c14 -7 26 -16 37 -29c23 -29 35 -73 35 -132c0 -117 -46 -176 -149 -176zM128 643h-79v-290h79c83 0 117 42 117 145c0 104 -33 145 -117 145zM128 322h-79v-291h79
c84 0 117 41 117 145s-34 146 -117 146z" />
    <glyph glyph-name="C" unicode="C" horiz-adv-x="344" 
d="M8 179v317c0 73 19 119 47 145s64 33 97 33c32 0 68 -7 96 -33s47 -72 47 -145v-16h-32v16c0 103 -39 147 -111 147c-73 0 -112 -44 -112 -147v-317c0 -103 37 -148 112 -148c36 0 64 12 83 35c19 25 28 62 28 113v16h32v-16c0 -75 -19 -118 -47 -145s-64 -34 -96 -34
c-33 0 -69 7 -97 34s-47 70 -47 145z" />
    <glyph glyph-name="D" unicode="D" horiz-adv-x="348" 
d="M127 0h-115v674h115c107 0 156 -62 156 -182v-310c0 -120 -49 -182 -156 -182zM127 643h-84v-612h84c87 0 124 47 124 151v310c0 104 -37 151 -124 151z" />
    <glyph glyph-name="E" unicode="E" horiz-adv-x="303" 
d="M10 674h242v-31h-211v-290h181v-31h-181v-291h211v-31h-242v674z" />
    <glyph glyph-name="F" unicode="F" horiz-adv-x="308" 
d="M7 674h242v-31h-211v-290h211v-31h-211v-322h-31v674z" />
    <glyph glyph-name="G" unicode="G" horiz-adv-x="352" 
d="M10 178v319c0 116 48 177 144 177s144 -61 144 -177v-16h-32v16c0 65 -16 102 -38 122s-50 24 -74 24s-52 -4 -74 -24s-39 -57 -39 -122v-319c0 -100 37 -147 113 -147c75 0 112 47 112 147v88h-146v32h178v-120c0 -116 -48 -178 -144 -178s-144 63 -144 178z" />
    <glyph glyph-name="H" unicode="H" horiz-adv-x="344" 
d="M42 352h204v322h32v-674h-32v321h-204v-321h-32v674h32v-322z" />
    <glyph glyph-name="I" unicode="I" horiz-adv-x="109" 
d="M44 674v-674h-31v674h31z" />
    <glyph glyph-name="J" unicode="J" horiz-adv-x="324" 
d="M0 165v15h31v-15c0 -60 15 -93 35 -112s45 -22 68 -22c67 0 102 42 102 134v509h31v-509c0 -109 -44 -165 -133 -165s-134 56 -134 165z" />
    <glyph glyph-name="K" unicode="K" horiz-adv-x="338" 
d="M40 291l236 383h38l-200 -322l200 -352h-36l-182 319l-56 -85v-234h-32v674h32v-383z" />
    <glyph glyph-name="L" unicode="L" horiz-adv-x="285" 
d="M242 31v-31h-238v674h32v-643h206z" />
    <glyph glyph-name="M" unicode="M" horiz-adv-x="393" 
d="M179 0h-24l-117 536v-536h-31v674h33l127 -571l126 571h34v-674h-32v536z" />
    <glyph glyph-name="N" unicode="N" horiz-adv-x="360" 
d="M300 0h-26l-233 577v-577h-32v674h27l232 -577v577h32v-674z" />
    <glyph glyph-name="O" unicode="O" 
d="M10 179v317c0 115 48 178 143 178c96 0 144 -62 144 -178v-317c0 -75 -19 -118 -47 -145s-64 -34 -97 -34c-32 0 -68 7 -96 34s-47 70 -47 145zM41 496v-317c0 -101 37 -148 112 -148c73 0 112 44 112 148v317c0 103 -37 147 -112 147c-76 0 -112 -47 -112 -147z" />
    <glyph glyph-name="P" unicode="P" horiz-adv-x="340" 
d="M132 322h-90v-322h-31v674h121c108 0 157 -59 157 -176s-49 -176 -157 -176zM132 643h-90v-290h90c88 0 125 44 125 145c0 104 -36 145 -125 145z" />
    <glyph glyph-name="Q" unicode="Q" horiz-adv-x="348" 
d="M258 49l-2 -2l65 -78h-41l-46 56c-23 -17 -51 -25 -84 -25c-96 0 -144 66 -144 182v317c0 115 48 175 144 175c95 0 143 -60 143 -175v-317c0 -57 -12 -102 -35 -133zM214 49l-45 55h40l27 -32c17 25 25 61 25 110v317c0 101 -36 144 -111 144s-112 -45 -112 -144v-317
c0 -101 37 -151 112 -151c25 0 47 6 64 18z" />
    <glyph glyph-name="R" unicode="R" horiz-adv-x="348" 
d="M290 188v-187h-32v187c0 81 -46 128 -126 128h-90v-315h-31v674h141c108 0 146 -56 146 -179c0 -60 -12 -105 -37 -134c-11 -13 -34 -23 -50 -31c13 -6 24 -14 34 -24c30 -29 45 -68 45 -119zM42 643v-295h90c89 0 135 44 135 148c0 105 -26 147 -115 147h-110z" />
    <glyph glyph-name="S" unicode="S" horiz-adv-x="348" 
d="M10 179v15h31v-15c0 -67 17 -103 39 -123s50 -24 74 -24c72 0 113 30 113 119c0 150 -257 191 -257 365c0 101 52 159 144 159c95 0 145 -63 145 -179v-16h-32v16c0 101 -37 147 -113 147c-72 0 -113 -37 -113 -124c0 -160 258 -192 258 -365c0 -100 -52 -153 -145 -153
c-96 0 -144 59 -144 178z" />
    <glyph glyph-name="T" unicode="T" horiz-adv-x="351" 
d="M5 643v32h294v-32h-132v-642h-31v642h-131z" />
    <glyph glyph-name="U" unicode="U" horiz-adv-x="359" 
d="M2 166v509h31v-509c0 -85 28 -134 113 -134c89 0 112 57 112 134v509h31v-509c0 -101 -42 -165 -143 -165c-105 0 -144 69 -144 165z" />
    <glyph glyph-name="V" unicode="V" horiz-adv-x="385" 
d="M42 675l139 -594l138 594h33l-159 -674h-24l-159 674h32z" />
    <glyph glyph-name="W" unicode="W" horiz-adv-x="510" 
d="M246 674l99 -585l87 585h33l-107 -674h-26l-99 585l-99 -585h-25l-109 674h32l90 -585l99 585h25z" />
    <glyph glyph-name="X" unicode="X" horiz-adv-x="392" 
d="M174 300l-143 -300h-35l160 337l-160 337h35l143 -300l140 300h35l-158 -337l160 -337h-35z" />
    <glyph glyph-name="Y" unicode="Y" 
d="M26 674l127 -291l127 291h36l-147 -341v-333h-31v333l-148 341h36z" />
    <glyph glyph-name="Z" unicode="Z" horiz-adv-x="361" 
d="M298 674v-29l-258 -614h253v-31h-288v31l257 612h-262v31h298z" />
    <glyph glyph-name="a" unicode="a" horiz-adv-x="392" 
d="M312 0l-46 206h-178l-46 -206h-32l53 234v3l102 437h25l154 -674h-32zM177 589l-81 -352h163z" />
    <glyph glyph-name="b" unicode="b" horiz-adv-x="336" 
d="M128 0h-111v674h111c103 0 149 -59 149 -176c0 -58 -12 -102 -35 -131c-11 -13 -22 -22 -37 -30c14 -7 26 -16 37 -29c23 -29 35 -73 35 -132c0 -117 -46 -176 -149 -176zM128 643h-79v-290h79c83 0 117 42 117 145c0 104 -33 145 -117 145zM128 322h-79v-291h79
c84 0 117 41 117 145s-34 146 -117 146z" />
    <glyph glyph-name="c" unicode="c" horiz-adv-x="344" 
d="M8 179v317c0 73 19 119 47 145s64 33 97 33c32 0 68 -7 96 -33s47 -72 47 -145v-16h-32v16c0 103 -39 147 -111 147c-73 0 -112 -44 -112 -147v-317c0 -103 37 -148 112 -148c36 0 64 12 83 35c19 25 28 62 28 113v16h32v-16c0 -75 -19 -118 -47 -145s-64 -34 -96 -34
c-33 0 -69 7 -97 34s-47 70 -47 145z" />
    <glyph glyph-name="d" unicode="d" horiz-adv-x="348" 
d="M127 0h-115v674h115c107 0 156 -62 156 -182v-310c0 -120 -49 -182 -156 -182zM127 643h-84v-612h84c87 0 124 47 124 151v310c0 104 -37 151 -124 151z" />
    <glyph glyph-name="e" unicode="e" horiz-adv-x="303" 
d="M10 674h242v-31h-211v-290h181v-31h-181v-291h211v-31h-242v674z" />
    <glyph glyph-name="f" unicode="f" horiz-adv-x="308" 
d="M7 674h242v-31h-211v-290h211v-31h-211v-322h-31v674z" />
    <glyph glyph-name="g" unicode="g" horiz-adv-x="352" 
d="M10 178v319c0 116 48 177 144 177s144 -61 144 -177v-16h-32v16c0 65 -16 102 -38 122s-50 24 -74 24s-52 -4 -74 -24s-39 -57 -39 -122v-319c0 -100 37 -147 113 -147c75 0 112 47 112 147v88h-146v32h178v-120c0 -116 -48 -178 -144 -178s-144 63 -144 178z" />
    <glyph glyph-name="h" unicode="h" horiz-adv-x="344" 
d="M42 352h204v322h32v-674h-32v321h-204v-321h-32v674h32v-322z" />
    <glyph glyph-name="i" unicode="i" horiz-adv-x="109" 
d="M44 674v-674h-31v674h31z" />
    <glyph glyph-name="dotlessi" unicode="&#x131;" horiz-adv-x="109" 
d="M54 674v-674h-31v674h31z" />
    <glyph glyph-name="j" unicode="j" horiz-adv-x="324" 
d="M0 165v15h31v-15c0 -60 15 -93 35 -112s45 -22 68 -22c67 0 102 42 102 134v509h31v-509c0 -109 -44 -165 -133 -165s-134 56 -134 165z" />
    <glyph glyph-name="k" unicode="k" horiz-adv-x="360" 
d="M40 291l236 383h38l-200 -322l200 -352h-36l-182 319l-56 -85v-234h-32v674h32v-383z" />
    <glyph glyph-name="l" unicode="l" horiz-adv-x="285" 
d="M242 31v-31h-238v674h32v-643h206z" />
    <glyph glyph-name="m" unicode="m" horiz-adv-x="393" 
d="M179 0h-24l-117 536v-536h-31v674h33l127 -571l126 571h34v-674h-32v536z" />
    <glyph glyph-name="n" unicode="n" horiz-adv-x="360" 
d="M300 0h-26l-233 577v-577h-32v674h27l232 -577v577h32v-674z" />
    <glyph glyph-name="o" unicode="o" 
d="M10 179v317c0 115 48 178 143 178c96 0 144 -62 144 -178v-317c0 -75 -19 -118 -47 -145s-64 -34 -97 -34c-32 0 -68 7 -96 34s-47 70 -47 145zM41 496v-317c0 -101 37 -148 112 -148c73 0 112 44 112 148v317c0 103 -37 147 -112 147c-76 0 -112 -47 -112 -147z" />
    <glyph glyph-name="p" unicode="p" horiz-adv-x="340" 
d="M132 322h-90v-322h-31v674h121c108 0 157 -59 157 -176s-49 -176 -157 -176zM132 643h-90v-290h90c88 0 125 44 125 145c0 104 -36 145 -125 145z" />
    <glyph glyph-name="q" unicode="q" horiz-adv-x="348" 
d="M258 49l-2 -2l65 -78h-41l-46 56c-23 -17 -51 -25 -84 -25c-96 0 -144 66 -144 182v317c0 115 48 175 144 175c95 0 143 -60 143 -175v-317c0 -57 -12 -102 -35 -133zM214 49l-45 55h40l27 -32c17 25 25 61 25 110v317c0 101 -36 144 -111 144s-112 -45 -112 -144v-317
c0 -101 37 -151 112 -151c25 0 47 6 64 18z" />
    <glyph glyph-name="r" unicode="r" horiz-adv-x="348" 
d="M290 188v-187h-32v187c0 81 -46 128 -126 128h-90v-315h-31v674h141c108 0 146 -56 146 -179c0 -60 -12 -105 -37 -134c-11 -13 -34 -23 -50 -31c13 -6 24 -14 34 -24c30 -29 45 -68 45 -119zM42 643v-295h90c89 0 135 44 135 148c0 105 -26 147 -115 147h-110z" />
    <glyph glyph-name="s" unicode="s" horiz-adv-x="348" 
d="M10 179v15h31v-15c0 -67 17 -103 39 -123s50 -24 74 -24c72 0 113 30 113 119c0 150 -257 191 -257 365c0 101 52 159 144 159c95 0 145 -63 145 -179v-16h-32v16c0 101 -37 147 -113 147c-72 0 -113 -37 -113 -124c0 -160 258 -192 258 -365c0 -100 -52 -153 -145 -153
c-96 0 -144 59 -144 178z" />
    <glyph glyph-name="t" unicode="t" horiz-adv-x="351" 
d="M5 643v32h294v-32h-132v-642h-31v642h-131z" />
    <glyph glyph-name="u" unicode="u" horiz-adv-x="359" 
d="M2 166v509h31v-509c0 -85 28 -134 113 -134c89 0 112 57 112 134v509h31v-509c0 -101 -42 -165 -143 -165c-105 0 -144 69 -144 165z" />
    <glyph glyph-name="v" unicode="v" horiz-adv-x="385" 
d="M42 675l139 -594l138 594h33l-159 -674h-24l-159 674h32z" />
    <glyph glyph-name="w" unicode="w" horiz-adv-x="505" 
d="M246 674l99 -585l87 585h33l-107 -674h-26l-99 585l-99 -585h-25l-109 674h32l90 -585l99 585h25z" />
    <glyph glyph-name="x" unicode="x" horiz-adv-x="392" 
d="M174 300l-143 -300h-35l160 337l-160 337h35l143 -300l140 300h35l-158 -337l160 -337h-35z" />
    <glyph glyph-name="y" unicode="y" 
d="M26 674l127 -291l127 291h36l-147 -341v-333h-31v333l-148 341h36z" />
    <glyph glyph-name="z" unicode="z" horiz-adv-x="361" 
d="M298 674v-29l-258 -614h253v-31h-288v31l257 612h-262v31h298z" />
    <glyph glyph-name="zero" unicode="0" horiz-adv-x="320" 
d="M9 181v313c0 115 40 180 125 180c84 0 125 -68 125 -180v-313c0 -112 -42 -181 -125 -181c-84 0 -125 66 -125 181zM40 494v-313c0 -100 31 -150 94 -150c62 0 93 50 93 150v313c0 99 -31 149 -93 149c-63 0 -94 -50 -94 -149z" />
    <glyph glyph-name="one" unicode="1" horiz-adv-x="194" 
d="M32 521l-24 20l102 133h31v-674h-32v620z" />
    <glyph glyph-name="two" unicode="2" horiz-adv-x="320" 
d="M44 31h218v-31h-250v16c0 60 8 108 24 151c17 49 48 93 91 132c69 63 103 134 103 214s-33 130 -93 130c-63 0 -93 -41 -93 -134v-6h-32v6c0 105 41 165 125 165c80 0 125 -69 125 -161c0 -91 -38 -170 -114 -238c-71 -63 -101 -136 -104 -244z" />
    <glyph glyph-name="three" unicode="3" horiz-adv-x="303" 
d="M10 178v6h32v-6c0 -103 33 -147 93 -147c57 0 79 49 87 85c4 17 6 37 6 58c0 60 -23 94 -43 113c-27 25 -56 34 -76 34h-29v31h29c24 0 54 12 78 36c23 24 41 60 41 111c0 43 -8 78 -25 105c-16 26 -39 39 -68 39c-62 0 -93 -49 -93 -148v-6h-32v6c0 113 42 179 125 179
c41 0 73 -18 95 -54c20 -30 30 -70 30 -121c0 -69 -29 -112 -53 -135c-12 -12 -25 -21 -38 -28c15 -7 27 -16 38 -27c24 -23 53 -64 53 -135c0 -107 -49 -174 -125 -174c-83 0 -125 65 -125 178z" />
    <glyph glyph-name="four" unicode="4" horiz-adv-x="324" 
d="M245 206h-235v30l237 438h30v-674h-32v206zM245 237v366l-198 -366h198z" />
    <glyph glyph-name="five" unicode="5" horiz-adv-x="310" 
d="M9 261v413h250v-31h-218v-274c23 34 54 51 93 51c41 0 72 -15 95 -46c20 -29 30 -72 30 -127v-71c0 -47 -11 -90 -30 -121c-23 -37 -54 -55 -95 -55c-83 0 -125 65 -125 176v4h32v-4c0 -101 32 -145 93 -145c59 0 79 52 87 88c4 17 6 36 6 57v71c0 99 -30 141 -93 141
c-59 0 -93 -58 -93 -121v-6h-32z" />
    <glyph glyph-name="six" unicode="6" horiz-adv-x="312" 
d="M9 158v295c0 96 20 152 45 183s57 38 80 38c83 0 125 -61 125 -154v-15h-32v15c0 79 -33 123 -93 123c-40 0 -64 -29 -77 -68s-16 -86 -16 -122v-85c23 34 54 51 93 51c85 0 125 -63 125 -176v-63c0 -48 -11 -92 -30 -124c-22 -37 -54 -56 -95 -56
c-79 0 -125 58 -125 158zM41 244v-86c0 -24 3 -55 16 -81s37 -46 77 -46c59 0 79 53 87 90c4 18 6 38 6 59v63c0 101 -32 145 -93 145c-59 0 -93 -57 -93 -144z" />
    <glyph glyph-name="seven" unicode="7" horiz-adv-x="376" 
d="M339 644l-269 -644h-34l269 643h-299v31h333v-30z" />
    <glyph glyph-name="eight" unicode="8" horiz-adv-x="332" 
d="M212 337c13 -7 25 -17 34 -30c21 -28 32 -72 32 -131c0 -119 -42 -176 -135 -176c-95 0 -136 60 -136 176c0 58 11 102 32 131c9 13 21 23 34 30c-13 7 -25 17 -34 30c-21 29 -32 73 -32 131c0 116 41 176 136 176c93 0 135 -57 135 -176c0 -59 -11 -103 -32 -131
c-9 -13 -21 -23 -34 -30zM64 386c17 -22 43 -33 79 -33c72 0 103 41 103 145s-31 145 -103 145s-104 -41 -104 -145c0 -52 8 -89 25 -112zM221 64c17 23 25 60 25 112c0 104 -31 146 -103 146s-104 -42 -104 -146s32 -145 104 -145c36 0 62 11 78 33z" />
    <glyph glyph-name="nine" unicode="9" horiz-adv-x="308" 
d="M8 163v16h32v-16c0 -87 33 -132 93 -132c39 0 62 26 76 63c14 36 17 83 17 126v76c-21 -33 -53 -52 -93 -52c-83 0 -125 62 -125 178v74c0 108 49 178 125 178c83 0 125 -59 125 -156v-298c0 -137 -40 -220 -125 -220c-83 0 -125 64 -125 163zM40 496v-74
c0 -104 32 -146 93 -146c59 0 78 50 87 86c4 18 6 38 6 59v97c0 83 -32 125 -93 125c-57 0 -93 -59 -93 -147z" />
    <glyph glyph-name="asterisk" unicode="*" horiz-adv-x="295" 
d="M149 567l97 36l11 -30l-97 -36l73 -82l-24 -21l-76 86l-75 -86l-24 21l72 82l-96 36l11 30l97 -36v103h31v-103z" />
    <glyph glyph-name="backslash" unicode="\" horiz-adv-x="380" 
d="M292 0l-270 674h34l270 -674h-34z" />
    <glyph glyph-name="bullet" unicode="&#x2022;" horiz-adv-x="105" 
d="M-21 379c0 22 17 39 39 39s39 -17 39 -39s-17 -39 -39 -39s-39 17 -39 39z" />
    <glyph glyph-name="colon" unicode=":" horiz-adv-x="113" 
d="M45 514v-76h-31v76h31zM14 239h31v-76h-31v76z" />
    <glyph glyph-name="comma" unicode="," horiz-adv-x="85" 
d="M44 43v-83h-31v83h31z" />
    <glyph glyph-name="exclam" unicode="!" horiz-adv-x="93" 
d="M40 675v-576h-31v576h31zM9 44h31v-43h-31v43z" />
    <glyph glyph-name="numbersign" unicode="#" horiz-adv-x="542" 
d="M293 226h-141l-44 -226h-32l44 226h-140v32h146l31 157h-146v32h152l44 227h33l-45 -227h142l43 227h32l-43 -227h120v-32h-127l-30 -157h126v-32h-133l-43 -226h-32zM158 258h141l31 157h-141z" />
    <glyph glyph-name="period" unicode="." horiz-adv-x="81" 
d="M44 43v-43h-32v43h32z" />
    <glyph glyph-name="question" unicode="?" horiz-adv-x="303" 
d="M128 119v-19h-31v19c0 40 1 50 9 92c16 95 62 135 103 205c13 22 23 50 23 91c0 40 -8 75 -24 99c-17 25 -40 38 -69 38c-31 0 -53 -11 -68 -34c-17 -23 -25 -59 -25 -108v-15h-32v15c0 108 42 173 125 173c39 0 71 -17 95 -51c20 -31 30 -70 30 -117
c0 -48 -13 -82 -29 -108c-62 -102 -107 -141 -107 -280zM128 44v-43h-32v43h32z" />
    <glyph glyph-name="quotedbl" unicode="&#x22;" horiz-adv-x="162" 
d="M10 674h31v-88h-31v88zM101 674v-88h-32v88h32z" />
    <glyph glyph-name="quotesingle" unicode="'" horiz-adv-x="81" 
d="M41 674v-88h-31v88h31z" />
    <glyph glyph-name="semicolon" unicode=";" horiz-adv-x="97" 
d="M45 514v-76h-32v76h32zM13 239h32v-112h-32v112z" />
    <glyph glyph-name="slash" unicode="/" horiz-adv-x="384" 
d="M55 0h-34l270 674h34z" />
    <glyph glyph-name="underscore" unicode="_" horiz-adv-x="461" 
d="M424 0v-31h-404v31h404z" />
    <glyph glyph-name="parenleft" unicode="(" horiz-adv-x="166" 
d="M119 29l-16 -27l-17 16c-11 9 -22 26 -33 51c-31 64 -46 153 -46 266c0 136 23 220 46 270c11 25 22 42 32 52l17 15l18 -27c-8 -7 -17 -16 -26 -31c-5 -7 -10 -17 -15 -28c-19 -43 -41 -119 -41 -251c0 -131 22 -208 41 -249c11 -23 19 -36 27 -45c4 -5 8 -9 13 -12z
" />
    <glyph glyph-name="parenright" unicode=")" horiz-adv-x="158" 
d="M47 18l-17 -16l-17 27c7 7 15 16 25 31c5 7 10 17 15 28c19 41 41 119 41 251c0 65 -5 118 -13 159c-8 40 -18 70 -27 90c-10 22 -19 37 -27 45c-9 8 -13 12 -14 12h1l16 27l18 -15c10 -9 21 -27 32 -52c31 -63 46 -152 46 -266c0 -136 -23 -219 -46 -269
c-12 -25 -23 -43 -33 -52z" />
    <glyph glyph-name="emdash" unicode="&#x2014;" horiz-adv-x="299" 
d="M257 352v-31h-244v31h244z" />
    <glyph glyph-name="endash" unicode="&#x2013;" horiz-adv-x="299" 
d="M257 352v-31h-244v31h244z" />
    <glyph glyph-name="hyphen" unicode="-" horiz-adv-x="299" 
d="M257 352v-31h-244v31h244z" />
    <glyph glyph-name="quotedblleft" unicode="&#x201c;" horiz-adv-x="150" 
d="M10 674h31v-88h-31v88zM101 674v-88h-32v88h32z" />
    <glyph glyph-name="quotedblright" unicode="&#x201d;" horiz-adv-x="150" 
d="M10 674h31v-88h-31v88zM101 674v-88h-32v88h32z" />
    <glyph glyph-name="quoteleft" unicode="&#x2018;" horiz-adv-x="81" 
d="M41 674v-88h-31v88h31z" />
    <glyph glyph-name="quoteright" unicode="&#x2019;" horiz-adv-x="81" 
d="M41 674v-88h-31v88h31z" />
    <glyph glyph-name="space" unicode=" " horiz-adv-x="210" 
 />
    <glyph glyph-name="CR" unicode="&#xd;" horiz-adv-x="210" 
 />
    <glyph glyph-name="dollar" unicode="$" horiz-adv-x="320" 
d="M159 49v-49h-31v49c-27 3 -54 12 -74 35c-21 23 -35 59 -35 118v16h31v-16c0 -48 10 -77 25 -95s34 -26 53 -27v243c-3 1 -5 3 -8 4c-17 9 -43 22 -63 44c-21 22 -38 53 -38 100c0 88 41 145 109 153v50h31v-50c27 -3 54 -11 75 -34c20 -24 34 -62 34 -119v-16h-31v16
c0 48 -10 78 -25 96s-34 23 -53 26v-251c1 -1 3 -1 4 -1l3 -2c17 -8 44 -21 65 -42c20 -21 37 -52 37 -99c0 -43 -10 -78 -30 -105c-19 -25 -46 -40 -79 -44zM128 359v233c-28 -4 -48 -20 -60 -43c-13 -23 -18 -50 -18 -78c0 -35 11 -59 26 -75c15 -17 35 -29 52 -37z
M159 307v-226c49 7 78 49 78 117c0 35 -11 58 -26 75c-16 16 -36 26 -52 34z" />
    <glyph glyph-name="equal" unicode="=" horiz-adv-x="312" 
d="M13 411v31h244v-31h-244zM13 201v31h244v-31h-244z" />
    <glyph glyph-name="percent" unicode="%" horiz-adv-x="449" 
d="M87 0h-34l270 674h34zM164 536v-86c0 -55 -34 -92 -82 -92s-82 37 -82 92v86c0 55 34 92 82 92s82 -37 82 -92zM31 536v-86c0 -28 14 -60 51 -60s50 32 50 60v86c0 28 -13 60 -50 60s-51 -32 -51 -60zM408 223v-86c0 -55 -33 -92 -81 -92c-49 0 -82 37 -82 92v86
c0 55 33 91 82 91c48 0 81 -36 81 -91zM377 137v86c0 13 -3 28 -11 40s-20 20 -39 20s-32 -8 -40 -20s-11 -27 -11 -40v-86c0 -28 12 -61 51 -61c37 0 50 33 50 61z" />
    <glyph glyph-name="plus" unicode="+" horiz-adv-x="384" 
d="M190 496v-146h146v-32h-146v-146h-32v146h-146v32h146v146h32z" />
    <glyph glyph-name="ampersand" unicode="&#x26;" horiz-adv-x="429" 
d="M173 359l129 -222c19 51 20 108 20 151v10h32v-10c0 -51 -3 -123 -31 -183v-1c-1 0 -1 0 -1 -1l60 -103h-36l-42 72c-34 -48 -85 -72 -153 -72c-93 0 -151 71 -151 166c0 44 12 77 30 103c28 40 67 70 101 98c-71 118 -109 307 29 307c149 0 117 -241 13 -315zM156 385
c0 0 14 12 22 22c61 79 86 236 -18 236c-112 0 -35 -215 -4 -258zM286 102l-139 236c-26 -20 -68 -52 -91 -86c-16 -22 -25 -49 -25 -86c0 -33 9 -68 29 -93s50 -42 91 -42c62 0 107 24 135 71z" />
    <glyph glyph-name="at" unicode="@" horiz-adv-x="647" 
d="M543 102l12 9l19 -25l-13 -10c-57 -41 -131 -67 -211 -71h-22c-72 0 -139 17 -194 50c-100 63 -145 167 -122 300c12 76 44 139 92 190c44 45 99 75 162 88c59 12 117 8 167 -11s92 -52 121 -97c21 -33 33 -77 37 -121c3 -45 -2 -92 -18 -132c-15 -36 -47 -65 -83 -84
c-37 -20 -78 -27 -107 -19c-28 7 -43 29 -40 60c-20 -15 -45 -16 -76 -16c-73 0 -110 38 -98 123c9 81 50 127 123 127c19 0 54 -2 77 -18c4 -3 7 -5 8 -7l2 8l2 15l31 -5l-2 -16l-2 -14c-2 -9 -4 -21 -6 -35c-3 -14 -5 -29 -8 -46s-6 -34 -8 -49c-3 -16 -5 -30 -7 -42
l-4 -27c-3 -15 3 -24 17 -28c5 -1 11 -2 16 -2c21 0 51 8 77 24c26 15 48 36 59 63c13 35 19 76 16 117c-4 40 -15 79 -32 107c-25 40 -64 69 -108 85s-95 20 -147 9c-48 -11 -98 -34 -141 -75s-77 -100 -89 -177c-19 -119 19 -213 108 -268c56 -35 126 -49 197 -45
s140 25 195 65zM267 245c33 0 50 2 63 14c15 15 24 47 35 104c3 19 3 32 0 40c-8 15 -17 21 -37 25c-11 2 -23 3 -36 3c-28 0 -49 -8 -64 -23c-15 -17 -24 -41 -28 -76c-8 -69 14 -87 67 -87z" />
    <glyph glyph-name="bar" unicode="|" horiz-adv-x="89" 
d="M44 674v-674h-31v674h31z" />
    <glyph glyph-name="grave" unicode="`" horiz-adv-x="172" 
d="M123 724l-120 83h48l120 -83h-48z" />
    <glyph glyph-name="fraction" unicode="&#x2044;" horiz-adv-x="210" 
d="M-13 0h-34l270 674h34z" />
    <glyph glyph-name="questiondown" unicode="&#xbf;" horiz-adv-x="303" 
d="M150 557v19h31v-19c0 -40 -1 -50 -9 -92c-16 -95 -62 -135 -103 -205c-13 -22 -23 -50 -23 -91c0 -40 8 -75 24 -99c17 -25 40 -38 69 -38c31 0 53 11 68 34c17 23 25 59 25 108v15h32v-15c0 -108 -42 -173 -125 -173c-39 0 -71 17 -95 51c-20 31 -30 70 -30 117
c0 48 13 82 29 108c62 102 107 141 107 280zM150 632v43h32v-43h-32z" />
    <glyph glyph-name="exclamdown" unicode="&#xa1;" horiz-adv-x="93" 
d="M40 577v-576h-31v576h31zM40 632h-31v43h31v-43z" />
    <glyph glyph-name="acute" unicode="&#xb4;" horiz-adv-x="197" 
d="M181 807l-120 -83h-48l120 83h48z" />
    <glyph glyph-name="Aacute" unicode="&#xc1;" horiz-adv-x="392" 
d="M312 0l-46 206h-178l-46 -206h-32l53 234v3l102 437h25l154 -674h-32zM177 589l-81 -352h163zM259 805l-120 -83h-48l120 83h48z" />
    <glyph glyph-name="circumflex" unicode="&#x2c6;" horiz-adv-x="187" 
d="M3 724l68 83h40l68 -83h-38l-50 59l-50 -59h-38z" />
    <glyph glyph-name="caron" unicode="&#x2c7;" horiz-adv-x="182" 
d="M91 747l50 60h38l-68 -83h-40l-68 83h38z" />
    <glyph glyph-name="ring" unicode="&#x2da;" horiz-adv-x="90" 
d="M1 764c0 24 20 44 44 44s44 -20 44 -44s-20 -44 -44 -44s-44 20 -44 44zM28 764c0 -9 7 -16 16 -16s16 7 16 16s-7 16 -16 16s-16 -7 -16 -16z" />
    <glyph glyph-name="ordmasculine" unicode="&#xba;" horiz-adv-x="90" 
d="M1 764c0 24 20 44 44 44s44 -20 44 -44s-20 -44 -44 -44s-44 20 -44 44zM28 764c0 -9 7 -16 16 -16s16 7 16 16s-7 16 -16 16s-16 -7 -16 -16z" />
    <glyph glyph-name="degree" unicode="&#xb0;" horiz-adv-x="92" 
d="M1 764c0 24 20 44 44 44s44 -20 44 -44s-20 -44 -44 -44s-44 20 -44 44zM28 764c0 -9 7 -16 16 -16s16 7 16 16s-7 16 -16 16s-16 -7 -16 -16z" />
    <glyph glyph-name="dieresis" unicode="&#xa8;" horiz-adv-x="179" 
d="M33 767v-43h-32v43h32zM180 767v-43h-32v43h32z" />
    <glyph glyph-name="periodcentered" unicode="&#xb7;" horiz-adv-x="33" 
d="M33 409v-43h-32v43h32z" />
    <glyph glyph-name="tilde" unicode="&#x2dc;" horiz-adv-x="269" 
d="M42 722h-41c40 79 111 70 139 40c25 -27 75 -40 91 0h41c-34 -75 -114 -61 -141 -33c-22 23 -60 36 -89 -7z" />
    <glyph glyph-name="asciitilde" unicode="~" horiz-adv-x="272" 
d="M42 722h-41c40 79 111 70 139 40c25 -27 75 -40 91 0h41c-34 -75 -114 -61 -141 -33c-22 23 -60 36 -89 -7z" />
    <glyph glyph-name="cedilla" unicode="&#xb8;" horiz-adv-x="151" 
d="M71 7v-54s81 6 81 -52c0 -82 -147 -57 -147 -46v24s104 -26 116 18c8 30 -33 28 -79 28v82h29z" />
    <glyph glyph-name="aacute" unicode="&#xe1;" horiz-adv-x="392" 
d="M312 0l-46 206h-178l-46 -206h-32l53 234v3l102 437h25l154 -674h-32zM177 589l-81 -352h163zM259 805l-120 -83h-48l120 83h48z" />
    <glyph glyph-name="Agrave" unicode="&#xc0;" horiz-adv-x="392" 
d="M312 0l-46 206h-178l-46 -206h-32l53 234v3l102 437h25l154 -674h-32zM177 589l-81 -352h163zM211 724l-120 83h48l120 -83h-48z" />
    <glyph glyph-name="agrave" unicode="&#xe0;" horiz-adv-x="392" 
d="M312 0l-46 206h-178l-46 -206h-32l53 234v3l102 437h25l154 -674h-32zM177 589l-81 -352h163zM211 724l-120 83h48l120 -83h-48z" />
    <glyph glyph-name="Acircumflex" unicode="&#xc2;" horiz-adv-x="392" 
d="M312 0l-46 206h-178l-46 -206h-32l53 234v3l102 437h25l154 -674h-32zM177 589l-81 -352h163zM90 724l68 83h40l68 -83h-38l-50 59l-50 -59h-38z" />
    <glyph glyph-name="acircumflex" unicode="&#xe2;" horiz-adv-x="392" 
d="M312 0l-46 206h-178l-46 -206h-32l53 234v3l102 437h25l154 -674h-32zM177 589l-81 -352h163zM90 724l68 83h40l68 -83h-38l-50 59l-50 -59h-38z" />
    <glyph glyph-name="Atilde" unicode="&#xc3;" horiz-adv-x="392" 
d="M312 0l-46 206h-178l-46 -206h-32l53 234v3l102 437h25l154 -674h-32zM177 589l-81 -352h163zM86 722h-41c40 79 111 70 139 40c25 -27 75 -40 91 0h41c-34 -75 -114 -61 -141 -33c-22 23 -60 36 -89 -7z" />
    <glyph glyph-name="atilde" unicode="&#xe3;" horiz-adv-x="392" 
d="M312 0l-46 206h-178l-46 -206h-32l53 234v3l102 437h25l154 -674h-32zM177 589l-81 -352h163zM86 722h-41c40 79 111 70 139 40c25 -27 75 -40 91 0h41c-34 -75 -114 -61 -141 -33c-22 23 -60 36 -89 -7z" />
    <glyph glyph-name="Adieresis" unicode="&#xc4;" horiz-adv-x="392" 
d="M312 0l-46 206h-178l-46 -206h-32l53 234v3l102 437h25l154 -674h-32zM177 589l-81 -352h163zM120 767v-43h-32v43h32zM267 767v-43h-32v43h32z" />
    <glyph glyph-name="adieresis" unicode="&#xe4;" horiz-adv-x="392" 
d="M312 0l-46 206h-178l-46 -206h-32l53 234v3l102 437h25l154 -674h-32zM177 589l-81 -352h163zM120 767v-43h-32v43h32zM267 767v-43h-32v43h32z" />
    <glyph glyph-name="Aring" unicode="&#xc5;" horiz-adv-x="392" 
d="M266 206l46 -206h32l-154 674h-25l-102 -437v-3l-53 -234h32l46 206h178zM96 237l81 352l82 -352h-163zM134 764c0 24 20 44 44 44s44 -20 44 -44s-20 -44 -44 -44s-44 20 -44 44zM161 764c0 -9 7 -16 16 -16s16 7 16 16s-7 16 -16 16s-16 -7 -16 -16z" />
    <glyph glyph-name="aring" unicode="&#xe5;" horiz-adv-x="392" 
d="M266 206l46 -206h32l-154 674h-25l-102 -437v-3l-53 -234h32l46 206h178zM96 237l81 352l82 -352h-163zM134 764c0 24 20 44 44 44s44 -20 44 -44s-20 -44 -44 -44s-44 20 -44 44zM161 764c0 -9 7 -16 16 -16s16 7 16 16s-7 16 -16 16s-16 -7 -16 -16z" />
    <glyph glyph-name="AE" unicode="&#xc6;" horiz-adv-x="615" 
d="M310 674h244v-31h-211v-290h211v-31h-211v-291h211v-31h-242v206h-177l-96 -206h-34zM149 237h163v360z" />
    <glyph glyph-name="ae" unicode="&#xe6;" horiz-adv-x="615" 
d="M310 674h244v-31h-211v-290h211v-31h-211v-291h211v-31h-242v206h-177l-96 -206h-34zM149 237h163v360z" />
    <glyph glyph-name="Ccedilla" unicode="&#xc7;" horiz-adv-x="344" 
d="M8 179v317c0 73 19 119 47 145s64 33 97 33c32 0 68 -7 96 -33s47 -72 47 -145v-16h-32v16c0 103 -39 147 -111 147c-73 0 -112 -44 -112 -147v-317c0 -103 37 -148 112 -148c36 0 64 12 83 35c19 25 28 62 28 113v16h32v-16c0 -75 -19 -118 -47 -145s-64 -34 -96 -34
c-33 0 -69 7 -97 34s-47 70 -47 145zM164 7v-54s81 6 81 -52c0 -82 -147 -57 -147 -46v24s104 -26 116 18c8 30 -33 28 -79 28v82h29z" />
    <glyph glyph-name="ccedilla" unicode="&#xe7;" horiz-adv-x="344" 
d="M8 179v317c0 73 19 119 47 145s64 33 97 33c32 0 68 -7 96 -33s47 -72 47 -145v-16h-32v16c0 103 -39 147 -111 147c-73 0 -112 -44 -112 -147v-317c0 -103 37 -148 112 -148c36 0 64 12 83 35c19 25 28 62 28 113v16h32v-16c0 -75 -19 -118 -47 -145s-64 -34 -96 -34
c-33 0 -69 7 -97 34s-47 70 -47 145zM164 7v-54s81 6 81 -52c0 -82 -147 -57 -147 -46v24s104 -26 116 18c8 30 -33 28 -79 28v82h29z" />
    <glyph glyph-name="Egrave" unicode="&#xc8;" horiz-adv-x="303" 
d="M10 674h242v-31h-211v-290h181v-31h-181v-291h211v-31h-242v674zM169 724l-120 83h48l120 -83h-48z" />
    <glyph glyph-name="egrave" unicode="&#xe8;" horiz-adv-x="303" 
d="M10 674h242v-31h-211v-290h181v-31h-181v-291h211v-31h-242v674zM169 724l-120 83h48l120 -83h-48z" />
    <glyph glyph-name="Eacute" unicode="&#xc9;" horiz-adv-x="303" 
d="M10 674h242v-31h-211v-290h181v-31h-181v-291h211v-31h-242v674zM217 807l-120 -83h-48l120 83h48z" />
    <glyph glyph-name="eacute" unicode="&#xe9;" horiz-adv-x="303" 
d="M10 674h242v-31h-211v-290h181v-31h-181v-291h211v-31h-242v674zM217 807l-120 -83h-48l120 83h48z" />
    <glyph glyph-name="Ecircumflex" unicode="&#xca;" horiz-adv-x="303" 
d="M10 674h242v-31h-211v-290h181v-31h-181v-291h211v-31h-242v674zM40 724l68 83h40l68 -83h-38l-50 59l-50 -59h-38z" />
    <glyph glyph-name="ecircumflex" unicode="&#xea;" horiz-adv-x="303" 
d="M10 674h242v-31h-211v-290h181v-31h-181v-291h211v-31h-242v674zM40 724l68 83h40l68 -83h-38l-50 59l-50 -59h-38z" />
    <glyph glyph-name="Edieresis" unicode="&#xcb;" horiz-adv-x="303" 
d="M10 674h242v-31h-211v-290h181v-31h-181v-291h211v-31h-242v674zM76 767v-43h-32v43h32zM223 767v-43h-32v43h32z" />
    <glyph glyph-name="edieresis" unicode="&#xeb;" horiz-adv-x="303" 
d="M10 674h242v-31h-211v-290h181v-31h-181v-291h211v-31h-242v674zM76 767v-43h-32v43h32zM223 767v-43h-32v43h32z" />
    <glyph glyph-name="Igrave" unicode="&#xcc;" horiz-adv-x="109" 
d="M44 674v-674h-31v674h31zM76 724l-120 83h48l120 -83h-48z" />
    <glyph glyph-name="igrave" unicode="&#xec;" horiz-adv-x="109" 
d="M44 674v-674h-31v674h31zM76 724l-120 83h48l120 -83h-48z" />
    <glyph glyph-name="Iacute" unicode="&#xcd;" horiz-adv-x="109" 
d="M44 674v-674h-31v674h31zM124 807l-120 -83h-48l120 83h48z" />
    <glyph glyph-name="iacute" unicode="&#xed;" horiz-adv-x="109" 
d="M44 674v-674h-31v674h31zM124 807l-120 -83h-48l120 83h48z" />
    <glyph glyph-name="Icircumflex" unicode="&#xce;" horiz-adv-x="109" 
d="M44 674v-674h-31v674h31zM-51 724l68 83h40l68 -83h-38l-50 59l-50 -59h-38z" />
    <glyph glyph-name="icircumflex" unicode="&#xee;" horiz-adv-x="109" 
d="M44 674v-674h-31v674h31zM-51 724l68 83h40l68 -83h-38l-50 59l-50 -59h-38z" />
    <glyph glyph-name="Idieresis" unicode="&#xcf;" horiz-adv-x="109" 
d="M44 674v-674h-31v674h31zM-15 767v-43h-32v43h32zM132 767v-43h-32v43h32z" />
    <glyph glyph-name="idieresis" unicode="&#xef;" horiz-adv-x="109" 
d="M44 674v-674h-31v674h31zM-15 767v-43h-32v43h32zM132 767v-43h-32v43h32z" />
    <glyph glyph-name="Eth" unicode="&#xd0;" horiz-adv-x="348" 
d="M127 0h-115v674h115c107 0 156 -62 156 -182v-310c0 -120 -49 -182 -156 -182zM127 643h-84v-612h84c87 0 124 47 124 151v310c0 104 -37 151 -124 151zM159 352v-31h-244v31h244z" />
    <glyph glyph-name="eth" unicode="&#xf0;" horiz-adv-x="348" 
d="M127 0h-115v674h115c107 0 156 -62 156 -182v-310c0 -120 -49 -182 -156 -182zM127 643h-84v-612h84c87 0 124 47 124 151v310c0 104 -37 151 -124 151zM159 352v-31h-244v31h244z" />
    <glyph glyph-name="Ntilde" unicode="&#xd1;" horiz-adv-x="360" 
d="M300 0h-26l-233 577v-577h-32v674h27l232 -577v577h32v-674zM64 722h-41c40 79 111 70 139 40c25 -27 75 -40 91 0h41c-34 -75 -114 -61 -141 -33c-22 23 -60 36 -89 -7z" />
    <glyph glyph-name="ntilde" unicode="&#xf1;" horiz-adv-x="360" 
d="M300 0h-26l-233 577v-577h-32v674h27l232 -577v577h32v-674zM64 722h-41c40 79 111 70 139 40c25 -27 75 -40 91 0h41c-34 -75 -114 -61 -141 -33c-22 23 -60 36 -89 -7z" />
    <glyph glyph-name="Ograve" unicode="&#xd2;" 
d="M10 179v317c0 115 48 178 143 178c96 0 144 -62 144 -178v-317c0 -75 -19 -118 -47 -145s-64 -34 -97 -34c-32 0 -68 7 -96 34s-47 70 -47 145zM41 496v-317c0 -101 37 -148 112 -148c73 0 112 44 112 148v317c0 103 -37 147 -112 147c-76 0 -112 -47 -112 -147zM189 724
l-120 83h48l120 -83h-48z" />
    <glyph glyph-name="ograve" unicode="&#xf2;" 
d="M10 179v317c0 115 48 178 143 178c96 0 144 -62 144 -178v-317c0 -75 -19 -118 -47 -145s-64 -34 -97 -34c-32 0 -68 7 -96 34s-47 70 -47 145zM41 496v-317c0 -101 37 -148 112 -148c73 0 112 44 112 148v317c0 103 -37 147 -112 147c-76 0 -112 -47 -112 -147zM189 724
l-120 83h48l120 -83h-48z" />
    <glyph glyph-name="Oacute" unicode="&#xd3;" 
d="M10 179v317c0 115 48 178 143 178c96 0 144 -62 144 -178v-317c0 -75 -19 -118 -47 -145s-64 -34 -97 -34c-32 0 -68 7 -96 34s-47 70 -47 145zM41 496v-317c0 -101 37 -148 112 -148c73 0 112 44 112 148v317c0 103 -37 147 -112 147c-76 0 -112 -47 -112 -147zM230 807
l-120 -83h-48l120 83h48z" />
    <glyph glyph-name="oacute" unicode="&#xf3;" 
d="M10 179v317c0 115 48 178 143 178c96 0 144 -62 144 -178v-317c0 -75 -19 -118 -47 -145s-64 -34 -97 -34c-32 0 -68 7 -96 34s-47 70 -47 145zM41 496v-317c0 -101 37 -148 112 -148c73 0 112 44 112 148v317c0 103 -37 147 -112 147c-76 0 -112 -47 -112 -147zM242 807
l-120 -83h-48l120 83h48z" />
    <glyph glyph-name="Ocircumflex" unicode="&#xd4;" 
d="M10 179v317c0 115 48 178 143 178c96 0 144 -62 144 -178v-317c0 -75 -19 -118 -47 -145s-64 -34 -97 -34c-32 0 -68 7 -96 34s-47 70 -47 145zM41 496v-317c0 -101 37 -148 112 -148c73 0 112 44 112 148v317c0 103 -37 147 -112 147c-76 0 -112 -47 -112 -147zM64 724
l68 83h40l68 -83h-38l-50 59l-50 -59h-38z" />
    <glyph glyph-name="ocircumflex" unicode="&#xf4;" 
d="M10 179v317c0 115 48 178 143 178c96 0 144 -62 144 -178v-317c0 -75 -19 -118 -47 -145s-64 -34 -97 -34c-32 0 -68 7 -96 34s-47 70 -47 145zM41 496v-317c0 -101 37 -148 112 -148c73 0 112 44 112 148v317c0 103 -37 147 -112 147c-76 0 -112 -47 -112 -147zM64 724
l68 83h40l68 -83h-38l-50 59l-50 -59h-38z" />
    <glyph glyph-name="Otilde" unicode="&#xd5;" 
d="M10 179v317c0 115 48 178 143 178c96 0 144 -62 144 -178v-317c0 -75 -19 -118 -47 -145s-64 -34 -97 -34c-32 0 -68 7 -96 34s-47 70 -47 145zM41 496v-317c0 -101 37 -148 112 -148c73 0 112 44 112 148v317c0 103 -37 147 -112 147c-76 0 -112 -47 -112 -147zM60 722
h-41c40 79 111 70 139 40c25 -27 75 -40 91 0h41c-34 -75 -114 -61 -141 -33c-22 23 -60 36 -89 -7z" />
    <glyph glyph-name="otilde" unicode="&#xf5;" 
d="M10 179v317c0 115 48 178 143 178c96 0 144 -62 144 -178v-317c0 -75 -19 -118 -47 -145s-64 -34 -97 -34c-32 0 -68 7 -96 34s-47 70 -47 145zM41 496v-317c0 -101 37 -148 112 -148c73 0 112 44 112 148v317c0 103 -37 147 -112 147c-76 0 -112 -47 -112 -147zM60 722
h-41c40 79 111 70 139 40c25 -27 75 -40 91 0h41c-34 -75 -114 -61 -141 -33c-22 23 -60 36 -89 -7z" />
    <glyph glyph-name="Odieresis" unicode="&#xd6;" 
d="M10 179v317c0 115 48 178 143 178c96 0 144 -62 144 -178v-317c0 -75 -19 -118 -47 -145s-64 -34 -97 -34c-32 0 -68 7 -96 34s-47 70 -47 145zM41 496v-317c0 -101 37 -148 112 -148c73 0 112 44 112 148v317c0 103 -37 147 -112 147c-76 0 -112 -47 -112 -147zM97 767
v-43h-32v43h32zM244 767v-43h-32v43h32z" />
    <glyph glyph-name="odieresis" unicode="&#xf6;" 
d="M10 179v317c0 115 48 178 143 178c96 0 144 -62 144 -178v-317c0 -75 -19 -118 -47 -145s-64 -34 -97 -34c-32 0 -68 7 -96 34s-47 70 -47 145zM41 496v-317c0 -101 37 -148 112 -148c73 0 112 44 112 148v317c0 103 -37 147 -112 147c-76 0 -112 -47 -112 -147zM97 767
v-43h-32v43h32zM244 767v-43h-32v43h32z" />
    <glyph glyph-name="Oslash" unicode="&#xd8;" 
d="M10 179v317c0 115 48 178 143 178c96 0 144 -62 144 -178v-317c0 -75 -19 -118 -47 -145s-64 -34 -97 -34c-32 0 -68 7 -96 34s-47 70 -47 145zM41 496v-317c0 -101 37 -148 112 -148c73 0 112 44 112 148v317c0 103 -37 147 -112 147c-76 0 -112 -47 -112 -147zM45 0
h-34l270 674h34z" />
    <glyph glyph-name="oslash" unicode="&#xf8;" 
d="M10 179v317c0 115 48 178 143 178c96 0 144 -62 144 -178v-317c0 -75 -19 -118 -47 -145s-64 -34 -97 -34c-32 0 -68 7 -96 34s-47 70 -47 145zM41 496v-317c0 -101 37 -148 112 -148c73 0 112 44 112 148v317c0 103 -37 147 -112 147c-76 0 -112 -47 -112 -147zM45 0
h-34l270 674h34z" />
    <glyph glyph-name="Ugrave" unicode="&#xd9;" horiz-adv-x="359" 
d="M2 166v509h31v-509c0 -85 28 -134 113 -134c89 0 112 57 112 134v509h31v-509c0 -101 -42 -165 -143 -165c-105 0 -144 69 -144 165zM184 724l-120 83h48l120 -83h-48z" />
    <glyph glyph-name="ugrave" unicode="&#xf9;" horiz-adv-x="359" 
d="M2 166v509h31v-509c0 -85 28 -134 113 -134c89 0 112 57 112 134v509h31v-509c0 -101 -42 -165 -143 -165c-105 0 -144 69 -144 165zM184 724l-120 83h48l120 -83h-48z" />
    <glyph glyph-name="Uacute" unicode="&#xda;" horiz-adv-x="359" 
d="M2 166v509h31v-509c0 -85 28 -134 113 -134c89 0 112 57 112 134v509h31v-509c0 -101 -42 -165 -143 -165c-105 0 -144 69 -144 165zM240 807l-120 -83h-48l120 83h48z" />
    <glyph glyph-name="uacute" unicode="&#xfa;" horiz-adv-x="359" 
d="M2 166v509h31v-509c0 -85 28 -134 113 -134c89 0 112 57 112 134v509h31v-509c0 -101 -42 -165 -143 -165c-105 0 -144 69 -144 165zM240 807l-120 -83h-48l120 83h48z" />
    <glyph glyph-name="Ucircumflex" unicode="&#xdb;" horiz-adv-x="359" 
d="M2 166v509h31v-509c0 -85 28 -134 113 -134c89 0 112 57 112 134v509h31v-509c0 -101 -42 -165 -143 -165c-105 0 -144 69 -144 165zM52 724l68 83h40l68 -83h-38l-50 59l-50 -59h-38z" />
    <glyph glyph-name="ucircumflex" unicode="&#xfb;" horiz-adv-x="359" 
d="M2 166v509h31v-509c0 -85 28 -134 113 -134c89 0 112 57 112 134v509h31v-509c0 -101 -42 -165 -143 -165c-105 0 -144 69 -144 165zM52 724l68 83h40l68 -83h-38l-50 59l-50 -59h-38z" />
    <glyph glyph-name="Udieresis" unicode="&#xdc;" horiz-adv-x="359" 
d="M2 166v509h31v-509c0 -85 28 -134 113 -134c89 0 112 57 112 134v509h31v-509c0 -101 -42 -165 -143 -165c-105 0 -144 69 -144 165zM91 767v-43h-32v43h32zM238 767v-43h-32v43h32z" />
    <glyph glyph-name="udieresis" unicode="&#xfc;" horiz-adv-x="359" 
d="M2 166v509h31v-509c0 -85 28 -134 113 -134c89 0 112 57 112 134v509h31v-509c0 -101 -42 -165 -143 -165c-105 0 -144 69 -144 165zM91 767v-43h-32v43h32zM238 767v-43h-32v43h32z" />
    <glyph glyph-name="Yacute" unicode="&#xdd;" 
d="M26 674l127 -291l127 291h36l-147 -341v-333h-31v333l-148 341h36zM242 807l-120 -83h-48l120 83h48z" />
    <glyph glyph-name="yacute" unicode="&#xfd;" 
d="M26 674l127 -291l127 291h36l-147 -341v-333h-31v333l-148 341h36zM242 807l-120 -83h-48l120 83h48z" />
    <glyph glyph-name="Thorn" unicode="&#xde;" horiz-adv-x="336" 
d="M34 195v-195h-31v674h31v-189h132c115 0 170 -60 170 -145c0 -84 -58 -145 -170 -145h-132zM34 454v-227h132c99 0 139 51 139 113c0 63 -40 114 -139 114h-132z" />
    <glyph glyph-name="ydieresis" unicode="&#xff;" 
d="M26 674l127 -291l127 291h36l-147 -341v-333h-31v333l-148 341h36zM97 767v-43h-32v43h32zM244 767v-43h-32v43h32z" />
    <glyph glyph-name="Lslash" unicode="&#x141;" horiz-adv-x="364" 
d="M213 453l21 -22l-279 -280l-22 22zM302 31v-31h-238v674h32v-643h206z" />
    <glyph glyph-name="lslash" unicode="&#x142;" horiz-adv-x="364" 
d="M213 453l21 -22l-279 -280l-22 22zM302 31v-31h-238v674h32v-643h206z" />
    <glyph glyph-name="OE" unicode="&#x152;" horiz-adv-x="494" 
d="M193 674h242v-31h-211v-290h211v-31h-211v-291h211v-31h-234h-8c-130 0 -183 91 -183 218v258c0 115 88 198 183 198zM41 476v-277c0 -101 77 -168 152 -168v612c-76 0 -152 -67 -152 -167z" />
    <glyph glyph-name="oe" unicode="&#x153;" horiz-adv-x="494" 
d="M193 674h242v-31h-211v-290h211v-31h-211v-291h211v-31h-234h-8c-130 0 -183 91 -183 218v258c0 115 88 198 183 198zM41 476v-277c0 -101 77 -168 152 -168v612c-76 0 -152 -67 -152 -167z" />
    <glyph glyph-name="Scaron" unicode="&#x160;" horiz-adv-x="348" 
d="M10 179v15h31v-15c0 -67 17 -103 39 -123s50 -24 74 -24c72 0 113 30 113 119c0 150 -257 191 -257 365c0 101 52 159 144 159c95 0 145 -63 145 -179v-16h-32v16c0 101 -37 147 -113 147c-72 0 -113 -37 -113 -124c0 -160 258 -192 258 -365c0 -100 -52 -153 -145 -153
c-96 0 -144 59 -144 178zM153 747l50 60h38l-68 -83h-40l-68 83h38z" />
    <glyph glyph-name="scaron" unicode="&#x161;" horiz-adv-x="348" 
d="M10 179v15h31v-15c0 -67 17 -103 39 -123s50 -24 74 -24c72 0 113 30 113 119c0 150 -257 191 -257 365c0 101 52 159 144 159c95 0 145 -63 145 -179v-16h-32v16c0 101 -37 147 -113 147c-72 0 -113 -37 -113 -124c0 -160 258 -192 258 -365c0 -100 -52 -153 -145 -153
c-96 0 -144 59 -144 178zM153 747l50 60h38l-68 -83h-40l-68 83h38z" />
    <glyph glyph-name="Ydieresis" unicode="&#x178;" 
d="M26 674l127 -291l127 291h36l-147 -341v-333h-31v333l-148 341h36zM97 767v-43h-32v43h32zM244 767v-43h-32v43h32z" />
    <glyph glyph-name="Zcaron" unicode="&#x17d;" horiz-adv-x="369" 
d="M298 674v-29l-258 -614h253v-31h-288v31l257 612h-262v31h298zM144 747l50 60h38l-68 -83h-40l-68 83h38z" />
    <glyph glyph-name="less" unicode="&#x3c;" horiz-adv-x="242" 
d="M191 211h-43l-129 128l-22 22l22 22l129 128h43l-150 -150z" />
    <glyph glyph-name="greater" unicode="&#x3e;" horiz-adv-x="242" 
d="M40 211h-43l150 150l-150 150h43l129 -128l22 -22l-22 -22z" />
    <glyph glyph-name="asciicircum" unicode="^" horiz-adv-x="187" 
d="M111 807l-70 -83h-38l70 83h38zM141 724l-70 83h38l70 -83h-38z" />
    <glyph glyph-name="uniF8FF" unicode="&#xf8ff;" horiz-adv-x="0" 
 />
    <glyph glyph-name="sterling" unicode="&#xa3;" horiz-adv-x="323" 
d="M246 352v-31h-152c-2 -164 -13 -241 -56 -287h258v-34h-295v34c55 55 64 159 64 287h-63v31h63c-1 51 -2 104 -2 161c0 92 38 161 118 161c60 0 88 -31 103 -86l-27 -14c-8 42 -26 69 -76 69c-60 0 -86 -50 -86 -130c0 -62 0 -115 -1 -161h152z" />
    <glyph glyph-name="AEacute" unicode="&#x1fc;" horiz-adv-x="615" 
d="M310 674h244v-31h-211v-290h211v-31h-211v-291h211v-31h-242v206h-177l-96 -206h-34zM149 237h163v360zM412 807l-120 -83h-48l120 83h48z" />
    <glyph glyph-name="Cacute" unicode="&#x106;" horiz-adv-x="344" 
d="M8 179v317c0 73 19 119 47 145s64 33 97 33c32 0 68 -7 96 -33s47 -72 47 -145v-16h-32v16c0 103 -39 147 -111 147c-73 0 -112 -44 -112 -147v-317c0 -103 37 -148 112 -148c36 0 64 12 83 35c19 25 28 62 28 113v16h32v-16c0 -75 -19 -118 -47 -145s-64 -34 -96 -34
c-33 0 -69 7 -97 34s-47 70 -47 145zM244 807l-120 -83h-48l120 83h48z" />
    <glyph glyph-name="Ring" horiz-adv-x="90" 
d="M1 764c0 24 20 44 44 44s44 -20 44 -44s-20 -44 -44 -44s-44 20 -44 44zM28 764c0 -9 7 -16 16 -16s16 7 16 16s-7 16 -16 16s-16 -7 -16 -16z" />
    <glyph glyph-name="Tilde" horiz-adv-x="269" 
d="M42 722h-41c40 79 111 70 139 40c25 -27 75 -40 91 0h41c-34 -75 -114 -61 -141 -33c-22 23 -60 36 -89 -7z" />
    <glyph glyph-name="Grave" unicode="&#xf6ce;" horiz-adv-x="172" 
d="M123 724l-120 83h48l120 -83h-48z" />
    <glyph glyph-name="Dieresis" unicode="&#xf6cb;" horiz-adv-x="179" 
d="M33 767v-43h-32v43h32zM180 767v-43h-32v43h32z" />
    <glyph glyph-name="Circumflex" horiz-adv-x="187" 
d="M111 807l-70 -83h-38l70 83h38zM141 724l-70 83h38l70 -83h-38z" />
    <glyph glyph-name="Cedilla" horiz-adv-x="151" 
d="M71 7v-54s81 6 81 -52c0 -82 -147 -57 -147 -46v24s104 -26 116 18c8 30 -33 28 -79 28v82h29z" />
    <glyph glyph-name="Caron" unicode="&#xf6ca;" horiz-adv-x="182" 
d="M41 807l70 -83h-38l-70 83h38zM71 724l70 83h38l-70 -83h-38z" />
    <glyph glyph-name="Ccircumflex" unicode="&#x108;" horiz-adv-x="344" 
d="M8 179v317c0 73 19 119 47 145s64 33 97 33c32 0 68 -7 96 -33s47 -72 47 -145v-16h-32v16c0 103 -39 147 -111 147c-73 0 -112 -44 -112 -147v-317c0 -103 37 -148 112 -148c36 0 64 12 83 35c19 25 28 62 28 113v16h32v-16c0 -75 -19 -118 -47 -145s-64 -34 -96 -34
c-33 0 -69 7 -97 34s-47 70 -47 145zM60 724l68 83h40l68 -83h-38l-50 59l-50 -59h-38z" />
    <glyph glyph-name="dotaccent" unicode="&#x2d9;" horiz-adv-x="32" 
d="M32 759v-43h-32v43h32z" />
    <glyph glyph-name="Ccaron" unicode="&#x10c;" horiz-adv-x="344" 
d="M8 179v317c0 73 19 119 47 145s64 33 97 33c32 0 68 -7 96 -33s47 -72 47 -145v-16h-32v16c0 103 -39 147 -111 147c-73 0 -112 -44 -112 -147v-317c0 -103 37 -148 112 -148c36 0 64 12 83 35c19 25 28 62 28 113v16h32v-16c0 -75 -19 -118 -47 -145s-64 -34 -96 -34
c-33 0 -69 7 -97 34s-47 70 -47 145zM150 747l50 60h38l-68 -83h-40l-68 83h38z" />
    <glyph glyph-name="Cdotaccent" unicode="&#x10a;" horiz-adv-x="344" 
d="M8 179v317c0 73 19 119 47 145s64 33 97 33c32 0 68 -7 96 -33s47 -72 47 -145v-16h-32v16c0 103 -39 147 -111 147c-73 0 -112 -44 -112 -147v-317c0 -103 37 -148 112 -148c36 0 64 12 83 35c19 25 28 62 28 113v16h32v-16c0 -75 -19 -118 -47 -145s-64 -34 -96 -34
c-33 0 -69 7 -97 34s-47 70 -47 145zM162 759v-43h-32v43h32z" />
    <glyph glyph-name="Dcaron" unicode="&#x10e;" horiz-adv-x="348" 
d="M127 0h-115v674h115c107 0 156 -62 156 -182v-310c0 -120 -49 -182 -156 -182zM127 643h-84v-612h84c87 0 124 47 124 151v310c0 104 -37 151 -124 151zM130 747l50 60h38l-68 -83h-40l-68 83h38z" />
    <glyph glyph-name="Dcroat" unicode="&#x110;" horiz-adv-x="368" 
d="M187 0h-115v321h-79v31h79v322h115c107 0 156 -62 156 -182v-310c0 -120 -49 -182 -156 -182zM187 643h-84v-291h94v-31h-94v-290h84c87 0 124 47 124 151v310c0 104 -37 151 -124 151z" />
    <glyph glyph-name="Ecaron" unicode="&#x11a;" horiz-adv-x="303" 
d="M10 674h242v-31h-211v-290h181v-31h-181v-291h211v-31h-242v674zM134 747l50 60h38l-68 -83h-40l-68 83h38z" />
    <glyph glyph-name="macron" unicode="&#xaf;" horiz-adv-x="181" 
d="M181 755v-31h-176v31h176z" />
    <glyph glyph-name="Macron" unicode="&#xf6d0;" horiz-adv-x="181" 
d="M181 755v-31h-176v31h176z" />
    <glyph glyph-name="breve" unicode="&#x2d8;" horiz-adv-x="191" 
d="M96 755c53 0 56 21 56 40h36c0 -65 -71 -71 -92 -71s-92 6 -92 71h36c0 -19 3 -40 56 -40z" />
    <glyph glyph-name="Acute" unicode="&#xf6c9;" horiz-adv-x="197" 
d="M181 807l-120 -83h-48l120 83h48z" />
    <glyph glyph-name="commaaccent" unicode="&#xf6c3;" horiz-adv-x="210" 
d="M120 -47v-83h-31v83h31z" />
    <glyph glyph-name="commaaccent.cap" horiz-adv-x="210" 
d="M120 -47v-83h-31v83h31z" />
    <glyph glyph-name="Amacron" unicode="&#x100;" horiz-adv-x="392" 
d="M312 0l-46 206h-178l-46 -206h-32l53 234v3l102 437h25l154 -674h-32zM177 589l-81 -352h163zM264 755v-31h-176v31h176z" />
    <glyph glyph-name="Ebreve" unicode="&#x114;" horiz-adv-x="303" 
d="M10 674h242v-31h-211v-290h181v-31h-181v-291h211v-31h-242v674zM124 755c53 0 56 21 56 40h36c0 -65 -71 -71 -92 -71s-92 6 -92 71h36c0 -19 3 -40 56 -40z" />
    <glyph glyph-name="Breve" horiz-adv-x="191" 
d="M96 755c53 0 56 21 56 40h36c0 -65 -71 -71 -92 -71s-92 6 -92 71h36c0 -19 3 -40 56 -40z" />
    <glyph glyph-name="Edotaccent" unicode="&#x116;" horiz-adv-x="303" 
d="M10 674h242v-31h-211v-290h181v-31h-181v-291h211v-31h-242v674zM150 759v-43h-32v43h32z" />
    <glyph glyph-name="Emacron" unicode="&#x112;" horiz-adv-x="303" 
d="M10 674h242v-31h-211v-290h181v-31h-181v-291h211v-31h-242v674zM218 755v-31h-176v31h176z" />
    <glyph glyph-name="Gbreve" unicode="&#x11e;" horiz-adv-x="352" 
d="M10 178v319c0 116 48 177 144 177s144 -61 144 -177v-16h-32v16c0 65 -16 102 -38 122s-50 24 -74 24s-52 -4 -74 -24s-39 -57 -39 -122v-319c0 -100 37 -147 113 -147c75 0 112 47 112 147v88h-146v32h178v-120c0 -116 -48 -178 -144 -178s-144 63 -144 178zM146 755
c53 0 56 21 56 40h36c0 -65 -71 -71 -92 -71s-92 6 -92 71h36c0 -19 3 -40 56 -40z" />
    <glyph glyph-name="Gcircumflex" unicode="&#x11c;" horiz-adv-x="352" 
d="M10 178v319c0 116 48 177 144 177s144 -61 144 -177v-16h-32v16c0 65 -16 102 -38 122s-50 24 -74 24s-52 -4 -74 -24s-39 -57 -39 -122v-319c0 -100 37 -147 113 -147c75 0 112 47 112 147v88h-146v32h178v-120c0 -116 -48 -178 -144 -178s-144 63 -144 178zM60 724
l68 83h40l68 -83h-38l-50 59l-50 -59h-38z" />
    <glyph glyph-name="Gcommaaccent" unicode="&#x122;" horiz-adv-x="352" 
d="M10 178v319c0 116 48 177 144 177s144 -61 144 -177v-16h-32v16c0 65 -16 102 -38 122s-50 24 -74 24s-52 -4 -74 -24s-39 -57 -39 -122v-319c0 -100 37 -147 113 -147c75 0 112 47 112 147v88h-146v32h178v-120c0 -116 -48 -178 -144 -178s-144 63 -144 178zM178 -47
v-83h-31v83h31z" />
    <glyph glyph-name="Gdotaccent" unicode="&#x120;" horiz-adv-x="352" 
d="M10 178v319c0 116 48 177 144 177s144 -61 144 -177v-16h-32v16c0 65 -16 102 -38 122s-50 24 -74 24s-52 -4 -74 -24s-39 -57 -39 -122v-319c0 -100 37 -147 113 -147c75 0 112 47 112 147v88h-146v32h178v-120c0 -116 -48 -178 -144 -178s-144 63 -144 178zM166 759
v-43h-32v43h32z" />
    <glyph glyph-name="Hcircumflex" unicode="&#x124;" horiz-adv-x="344" 
d="M42 352h204v322h32v-674h-32v321h-204v-321h-32v674h32v-322zM52 724l68 83h40l68 -83h-38l-50 59l-50 -59h-38z" />
    <glyph glyph-name="Ibreve" unicode="&#x12c;" horiz-adv-x="109" 
d="M44 674v-674h-31v674h31zM28 755c53 0 56 21 56 40h36c0 -65 -71 -71 -92 -71s-92 6 -92 71h36c0 -19 3 -40 56 -40z" />
    <glyph glyph-name="Idotaccent" unicode="&#x130;" horiz-adv-x="109" 
d="M44 674v-674h-31v674h31zM45 759v-43h-32v43h32z" />
    <glyph glyph-name="Imacron" unicode="&#x12a;" horiz-adv-x="109" 
d="M44 674v-674h-31v674h31zM116 755v-31h-176v31h176z" />
    <glyph glyph-name="Itilde" unicode="&#x128;" horiz-adv-x="109" 
d="M44 674v-674h-31v674h31zM-65 722h-41c40 79 111 70 139 40c25 -27 75 -40 91 0h41c-34 -75 -114 -61 -141 -33c-22 23 -60 36 -89 -7z" />
    <glyph glyph-name="Jcircumflex" unicode="&#x134;" horiz-adv-x="324" 
d="M0 165v15h31v-15c0 -60 15 -93 35 -112s45 -22 68 -22c67 0 102 42 102 134v509h31v-509c0 -109 -44 -165 -133 -165s-134 56 -134 165zM163 724l68 83h40l68 -83h-38l-50 59l-50 -59h-38z" />
    <glyph glyph-name="Kcommaaccent" unicode="&#x136;" horiz-adv-x="338" 
d="M40 291l236 383h38l-200 -322l200 -352h-36l-182 319l-56 -85v-234h-32v674h32v-383zM167 -47v-83h-31v83h31z" />
    <glyph glyph-name="Lacute" unicode="&#x139;" horiz-adv-x="285" 
d="M242 31v-31h-238v674h32v-643h206zM108 807l-120 -83h-48l120 83h48z" />
    <glyph glyph-name="Lcaron" unicode="&#x13d;" horiz-adv-x="285" 
d="M21 747l50 60h38l-68 -83h-40l-68 83h38zM242 31v-31h-238v674h32v-643h206z" />
    <glyph glyph-name="Lcommaaccent" unicode="&#x13b;" horiz-adv-x="285" 
d="M242 31v-31h-238v674h32v-643h206zM136 -47v-83h-31v83h31z" />
    <glyph glyph-name="Nacute" unicode="&#x143;" horiz-adv-x="360" 
d="M300 0h-26l-233 577v-577h-32v674h27l232 -577v577h32v-674zM230 807l-120 -83h-48l120 83h48z" />
    <glyph glyph-name="Ncaron" unicode="&#x147;" horiz-adv-x="360" 
d="M300 0h-26l-233 577v-577h-32v674h27l232 -577v577h32v-674zM150 747l50 60h38l-68 -83h-40l-68 83h38z" />
    <glyph glyph-name="Ncommaaccent" unicode="&#x145;" horiz-adv-x="360" 
d="M300 0h-26l-233 577v-577h-32v674h27l232 -577v577h32v-674zM182 -47v-83h-31v83h31z" />
    <glyph glyph-name="Obreve" unicode="&#x14e;" 
d="M10 179v317c0 115 48 178 143 178c96 0 144 -62 144 -178v-317c0 -75 -19 -118 -47 -145s-64 -34 -97 -34c-32 0 -68 7 -96 34s-47 70 -47 145zM41 496v-317c0 -101 37 -148 112 -148c73 0 112 44 112 148v317c0 103 -37 147 -112 147c-76 0 -112 -47 -112 -147zM148 755
c53 0 56 21 56 40h36c0 -65 -71 -71 -92 -71s-92 6 -92 71h36c0 -19 3 -40 56 -40z" />
    <glyph glyph-name="Omacron" unicode="&#x14c;" 
d="M10 179v317c0 115 48 178 143 178c96 0 144 -62 144 -178v-317c0 -75 -19 -118 -47 -145s-64 -34 -97 -34c-32 0 -68 7 -96 34s-47 70 -47 145zM41 496v-317c0 -101 37 -148 112 -148c73 0 112 44 112 148v317c0 103 -37 147 -112 147c-76 0 -112 -47 -112 -147zM234 755
v-31h-176v31h176z" />
    <glyph glyph-name="Oslashacute" unicode="&#x1fe;" 
d="M10 179v317c0 115 48 178 143 178c96 0 144 -62 144 -178v-317c0 -75 -19 -118 -47 -145s-64 -34 -97 -34c-32 0 -68 7 -96 34s-47 70 -47 145zM41 496v-317c0 -101 37 -148 112 -148c73 0 112 44 112 148v317c0 103 -37 147 -112 147c-76 0 -112 -47 -112 -147zM45 0
h-34l270 674h34zM232 807l-120 -83h-48l120 83h48z" />
    <glyph glyph-name="Racute" unicode="&#x154;" horiz-adv-x="348" 
d="M290 188v-187h-32v187c0 81 -46 128 -126 128h-90v-315h-31v674h141c108 0 146 -56 146 -179c0 -60 -12 -105 -37 -134c-11 -13 -34 -23 -50 -31c13 -6 24 -14 34 -24c30 -29 45 -68 45 -119zM42 643v-295h90c89 0 135 44 135 148c0 105 -26 147 -115 147h-110zM227 807
l-120 -83h-48l120 83h48z" />
    <glyph glyph-name="Rcaron" unicode="&#x158;" horiz-adv-x="348" 
d="M290 188v-187h-32v187c0 81 -46 128 -126 128h-90v-315h-31v674h141c108 0 146 -56 146 -179c0 -60 -12 -105 -37 -134c-11 -13 -34 -23 -50 -31c13 -6 24 -14 34 -24c30 -29 45 -68 45 -119zM42 643v-295h90c89 0 135 44 135 148c0 105 -26 147 -115 147h-110zM131 747
l50 60h38l-68 -83h-40l-68 83h38z" />
    <glyph glyph-name="Rcommaaccent" unicode="&#x156;" horiz-adv-x="348" 
d="M290 188v-187h-32v187c0 81 -46 128 -126 128h-90v-315h-31v674h141c108 0 146 -56 146 -179c0 -60 -12 -105 -37 -134c-11 -13 -34 -23 -50 -31c13 -6 24 -14 34 -24c30 -29 45 -68 45 -119zM42 643v-295h90c89 0 135 44 135 148c0 105 -26 147 -115 147h-110zM163 -47
v-83h-31v83h31z" />
    <glyph glyph-name="Sacute" unicode="&#x15a;" horiz-adv-x="348" 
d="M10 179v15h31v-15c0 -67 17 -103 39 -123s50 -24 74 -24c72 0 113 30 113 119c0 150 -257 191 -257 365c0 101 52 159 144 159c95 0 145 -63 145 -179v-16h-32v16c0 101 -37 147 -113 147c-72 0 -113 -37 -113 -124c0 -160 258 -192 258 -365c0 -100 -52 -153 -145 -153
c-96 0 -144 59 -144 178zM230 807l-120 -83h-48l120 83h48z" />
    <glyph glyph-name="Scedilla" unicode="&#x15e;" horiz-adv-x="348" 
d="M10 179v15h31v-15c0 -67 17 -103 39 -123s50 -24 74 -24c72 0 113 30 113 119c0 150 -257 191 -257 365c0 101 52 159 144 159c95 0 145 -63 145 -179v-16h-32v16c0 101 -37 147 -113 147c-72 0 -113 -37 -113 -124c0 -160 258 -192 258 -365c0 -100 -52 -153 -145 -153
c-96 0 -144 59 -144 178zM166 7v-54s81 6 81 -52c0 -82 -147 -57 -147 -46v24s104 -26 116 18c8 30 -33 28 -79 28v82h29z" />
    <glyph glyph-name="Scircumflex" unicode="&#x15c;" horiz-adv-x="348" 
d="M10 179v15h31v-15c0 -67 17 -103 39 -123s50 -24 74 -24c72 0 113 30 113 119c0 150 -257 191 -257 365c0 101 52 159 144 159c95 0 145 -63 145 -179v-16h-32v16c0 101 -37 147 -113 147c-72 0 -113 -37 -113 -124c0 -160 258 -192 258 -365c0 -100 -52 -153 -145 -153
c-96 0 -144 59 -144 178zM63 724l68 83h40l68 -83h-38l-50 59l-50 -59h-38z" />
    <glyph glyph-name="Tcaron" unicode="&#x164;" horiz-adv-x="351" 
d="M5 643v32h294v-32h-132v-642h-31v642h-131zM154 747l50 60h38l-68 -83h-40l-68 83h38z" />
    <glyph glyph-name="Tcommaaccent" unicode="&#x162;" horiz-adv-x="351" 
d="M5 643v32h294v-32h-132v-642h-31v642h-131zM168 -47v-83h-31v83h31z" />
    <glyph glyph-name="Ubreve" unicode="&#x16c;" horiz-adv-x="359" 
d="M2 166v509h31v-509c0 -85 28 -134 113 -134c89 0 112 57 112 134v509h31v-509c0 -101 -42 -165 -143 -165c-105 0 -144 69 -144 165zM140 755c53 0 56 21 56 40h36c0 -65 -71 -71 -92 -71s-92 6 -92 71h36c0 -19 3 -40 56 -40z" />
    <glyph glyph-name="Umacron" unicode="&#x16a;" horiz-adv-x="359" 
d="M2 166v509h31v-509c0 -85 28 -134 113 -134c89 0 112 57 112 134v509h31v-509c0 -101 -42 -165 -143 -165c-105 0 -144 69 -144 165zM231 755v-31h-176v31h176z" />
    <glyph glyph-name="Uring" unicode="&#x16e;" horiz-adv-x="359" 
d="M2 675v-509c0 -96 39 -165 144 -165c101 0 143 64 143 165v509h-31v-509c0 -77 -23 -134 -112 -134c-85 0 -113 49 -113 134v509h-31zM95 764c0 24 20 44 44 44s44 -20 44 -44s-20 -44 -44 -44s-44 20 -44 44zM122 764c0 -9 7 -16 16 -16s16 7 16 16s-7 16 -16 16
s-16 -7 -16 -16z" />
    <glyph glyph-name="Utilde" unicode="&#x168;" horiz-adv-x="359" 
d="M2 166v509h31v-509c0 -85 28 -134 113 -134c89 0 112 57 112 134v509h31v-509c0 -101 -42 -165 -143 -165c-105 0 -144 69 -144 165zM48 722h-41c40 79 111 70 139 40c25 -27 75 -40 91 0h41c-34 -75 -114 -61 -141 -33c-22 23 -60 36 -89 -7z" />
    <glyph glyph-name="Wacute" unicode="&#x1e82;" horiz-adv-x="510" 
d="M246 674l99 -585l87 585h33l-107 -674h-26l-99 585l-99 -585h-25l-109 674h32l90 -585l99 585h25zM317 807l-120 -83h-48l120 83h48z" />
    <glyph glyph-name="Wcircumflex" unicode="&#x174;" horiz-adv-x="510" 
d="M246 674l99 -585l87 585h33l-107 -674h-26l-99 585l-99 -585h-25l-109 674h32l90 -585l99 585h25zM146 724l68 83h40l68 -83h-38l-50 59l-50 -59h-38z" />
    <glyph glyph-name="Wdieresis" unicode="&#x1e84;" horiz-adv-x="510" 
d="M246 674l99 -585l87 585h33l-107 -674h-26l-99 585l-99 -585h-25l-109 674h32l90 -585l99 585h25zM176 767v-43h-32v43h32zM323 767v-43h-32v43h32z" />
    <glyph glyph-name="Wgrave" unicode="&#x1e80;" horiz-adv-x="510" 
d="M246 674l99 -585l87 585h33l-107 -674h-26l-99 585l-99 -585h-25l-109 674h32l90 -585l99 585h25zM269 724l-120 83h48l120 -83h-48z" />
    <glyph glyph-name="Ycircumflex" unicode="&#x176;" 
d="M26 674l127 -291l127 291h36l-147 -341v-333h-31v333l-148 341h36zM65 724l68 83h40l68 -83h-38l-50 59l-50 -59h-38z" />
    <glyph glyph-name="Ygrave" unicode="&#x1ef2;" 
d="M26 674l127 -291l127 291h36l-147 -341v-333h-31v333l-148 341h36zM189 724l-120 83h48l120 -83h-48z" />
    <glyph glyph-name="Zacute" unicode="&#x179;" horiz-adv-x="361" 
d="M298 674v-29l-258 -614h253v-31h-288v31l257 612h-262v31h298zM236 807l-120 -83h-48l120 83h48z" />
    <glyph glyph-name="Zdotaccent" unicode="&#x17b;" horiz-adv-x="361" 
d="M298 674v-29l-258 -614h253v-31h-288v31l257 612h-262v31h298zM160 759v-43h-32v43h32z" />
    <glyph glyph-name="amacron" unicode="&#x101;" horiz-adv-x="392" 
d="M312 0l-46 206h-178l-46 -206h-32l53 234v3l102 437h25l154 -674h-32zM177 589l-81 -352h163zM264 755v-31h-176v31h176z" />
    <glyph glyph-name="aeacute" unicode="&#x1fd;" horiz-adv-x="615" 
d="M310 674h244v-31h-211v-290h211v-31h-211v-291h211v-31h-242v206h-177l-96 -206h-34zM149 237h163v360zM412 807l-120 -83h-48l120 83h48z" />
    <glyph glyph-name="cacute" unicode="&#x107;" horiz-adv-x="344" 
d="M8 179v317c0 73 19 119 47 145s64 33 97 33c32 0 68 -7 96 -33s47 -72 47 -145v-16h-32v16c0 103 -39 147 -111 147c-73 0 -112 -44 -112 -147v-317c0 -103 37 -148 112 -148c36 0 64 12 83 35c19 25 28 62 28 113v16h32v-16c0 -75 -19 -118 -47 -145s-64 -34 -96 -34
c-33 0 -69 7 -97 34s-47 70 -47 145zM244 807l-120 -83h-48l120 83h48z" />
    <glyph glyph-name="ccaron" unicode="&#x10d;" horiz-adv-x="344" 
d="M8 179v317c0 73 19 119 47 145s64 33 97 33c32 0 68 -7 96 -33s47 -72 47 -145v-16h-32v16c0 103 -39 147 -111 147c-73 0 -112 -44 -112 -147v-317c0 -103 37 -148 112 -148c36 0 64 12 83 35c19 25 28 62 28 113v16h32v-16c0 -75 -19 -118 -47 -145s-64 -34 -96 -34
c-33 0 -69 7 -97 34s-47 70 -47 145zM150 747l50 60h38l-68 -83h-40l-68 83h38z" />
    <glyph glyph-name="ccircumflex" unicode="&#x109;" horiz-adv-x="344" 
d="M8 179v317c0 73 19 119 47 145s64 33 97 33c32 0 68 -7 96 -33s47 -72 47 -145v-16h-32v16c0 103 -39 147 -111 147c-73 0 -112 -44 -112 -147v-317c0 -103 37 -148 112 -148c36 0 64 12 83 35c19 25 28 62 28 113v16h32v-16c0 -75 -19 -118 -47 -145s-64 -34 -96 -34
c-33 0 -69 7 -97 34s-47 70 -47 145zM60 724l68 83h40l68 -83h-38l-50 59l-50 -59h-38z" />
    <glyph glyph-name="cdotaccent" unicode="&#x10b;" horiz-adv-x="344" 
d="M8 179v317c0 73 19 119 47 145s64 33 97 33c32 0 68 -7 96 -33s47 -72 47 -145v-16h-32v16c0 103 -39 147 -111 147c-73 0 -112 -44 -112 -147v-317c0 -103 37 -148 112 -148c36 0 64 12 83 35c19 25 28 62 28 113v16h32v-16c0 -75 -19 -118 -47 -145s-64 -34 -96 -34
c-33 0 -69 7 -97 34s-47 70 -47 145zM162 759v-43h-32v43h32z" />
    <glyph glyph-name="dcaron" unicode="&#x10f;" horiz-adv-x="348" 
d="M127 0h-115v674h115c107 0 156 -62 156 -182v-310c0 -120 -49 -182 -156 -182zM127 643h-84v-612h84c87 0 124 47 124 151v310c0 104 -37 151 -124 151zM130 747l50 60h38l-68 -83h-40l-68 83h38z" />
    <glyph glyph-name="dcroat" unicode="&#x111;" horiz-adv-x="368" 
d="M187 0h-115v321h-79v31h79v322h115c107 0 156 -62 156 -182v-310c0 -120 -49 -182 -156 -182zM187 643h-84v-291h94v-31h-94v-290h84c87 0 124 47 124 151v310c0 104 -37 151 -124 151z" />
    <glyph glyph-name="ebreve" unicode="&#x115;" horiz-adv-x="303" 
d="M10 674h242v-31h-211v-290h181v-31h-181v-291h211v-31h-242v674zM124 755c53 0 56 21 56 40h36c0 -65 -71 -71 -92 -71s-92 6 -92 71h36c0 -19 3 -40 56 -40z" />
    <glyph glyph-name="ecaron" unicode="&#x11b;" horiz-adv-x="303" 
d="M10 674h242v-31h-211v-290h181v-31h-181v-291h211v-31h-242v674zM134 747l50 60h38l-68 -83h-40l-68 83h38z" />
    <glyph glyph-name="edotaccent" unicode="&#x117;" horiz-adv-x="303" 
d="M10 674h242v-31h-211v-290h181v-31h-181v-291h211v-31h-242v674zM150 759v-43h-32v43h32z" />
    <glyph glyph-name="emacron" unicode="&#x113;" horiz-adv-x="303" 
d="M10 674h242v-31h-211v-290h181v-31h-181v-291h211v-31h-242v674zM218 755v-31h-176v31h176z" />
    <glyph glyph-name="gbreve" unicode="&#x11f;" horiz-adv-x="352" 
d="M10 178v319c0 116 48 177 144 177s144 -61 144 -177v-16h-32v16c0 65 -16 102 -38 122s-50 24 -74 24s-52 -4 -74 -24s-39 -57 -39 -122v-319c0 -100 37 -147 113 -147c75 0 112 47 112 147v88h-146v32h178v-120c0 -116 -48 -178 -144 -178s-144 63 -144 178z" />
    <glyph glyph-name="gcircumflex" unicode="&#x11d;" horiz-adv-x="352" 
d="M10 178v319c0 116 48 177 144 177s144 -61 144 -177v-16h-32v16c0 65 -16 102 -38 122s-50 24 -74 24s-52 -4 -74 -24s-39 -57 -39 -122v-319c0 -100 37 -147 113 -147c75 0 112 47 112 147v88h-146v32h178v-120c0 -116 -48 -178 -144 -178s-144 63 -144 178zM146 755
c53 0 56 21 56 40h36c0 -65 -71 -71 -92 -71s-92 6 -92 71h36c0 -19 3 -40 56 -40z" />
    <glyph glyph-name="gcommaaccent" unicode="&#x123;" horiz-adv-x="352" 
d="M10 178v319c0 116 48 177 144 177s144 -61 144 -177v-16h-32v16c0 65 -16 102 -38 122s-50 24 -74 24s-52 -4 -74 -24s-39 -57 -39 -122v-319c0 -100 37 -147 113 -147c75 0 112 47 112 147v88h-146v32h178v-120c0 -116 -48 -178 -144 -178s-144 63 -144 178zM60 724
l68 83h40l68 -83h-38l-50 59l-50 -59h-38z" />
    <glyph glyph-name="gdotaccent" unicode="&#x121;" horiz-adv-x="352" 
d="M10 178v319c0 116 48 177 144 177s144 -61 144 -177v-16h-32v16c0 65 -16 102 -38 122s-50 24 -74 24s-52 -4 -74 -24s-39 -57 -39 -122v-319c0 -100 37 -147 113 -147c75 0 112 47 112 147v88h-146v32h178v-120c0 -116 -48 -178 -144 -178s-144 63 -144 178zM178 -47
v-83h-31v83h31z" />
    <glyph glyph-name="hcircumflex" unicode="&#x125;" horiz-adv-x="344" 
d="M42 352h204v322h32v-674h-32v321h-204v-321h-32v674h32v-322zM52 724l68 83h40l68 -83h-38l-50 59l-50 -59h-38z" />
    <glyph glyph-name="ibreve" unicode="&#x12d;" horiz-adv-x="109" 
d="M44 674v-674h-31v674h31zM28 755c53 0 56 21 56 40h36c0 -65 -71 -71 -92 -71s-92 6 -92 71h36c0 -19 3 -40 56 -40z" />
    <glyph glyph-name="imacron" unicode="&#x12b;" horiz-adv-x="109" 
d="M44 674v-674h-31v674h31zM116 755v-31h-176v31h176z" />
    <glyph glyph-name="itilde" unicode="&#x129;" horiz-adv-x="109" 
d="M44 674v-674h-31v674h31zM-65 722h-41c40 79 111 70 139 40c25 -27 75 -40 91 0h41c-34 -75 -114 -61 -141 -33c-22 23 -60 36 -89 -7z" />
    <glyph glyph-name="jcircumflex" unicode="&#x135;" horiz-adv-x="324" 
d="M0 165v15h31v-15c0 -60 15 -93 35 -112s45 -22 68 -22c67 0 102 42 102 134v509h31v-509c0 -109 -44 -165 -133 -165s-134 56 -134 165zM163 724l68 83h40l68 -83h-38l-50 59l-50 -59h-38z" />
    <glyph glyph-name="kcommaaccent" unicode="&#x137;" horiz-adv-x="338" 
d="M40 291l236 383h38l-200 -322l200 -352h-36l-182 319l-56 -85v-234h-32v674h32v-383zM167 -47v-83h-31v83h31z" />
    <glyph glyph-name="lacute" unicode="&#x13a;" horiz-adv-x="285" 
d="M242 31v-31h-238v674h32v-643h206zM108 807l-120 -83h-48l120 83h48z" />
    <glyph glyph-name="lcaron" unicode="&#x13e;" horiz-adv-x="285" 
d="M21 747l50 60h38l-68 -83h-40l-68 83h38zM242 31v-31h-238v674h32v-643h206z" />
    <glyph glyph-name="lcommaaccent" unicode="&#x13c;" horiz-adv-x="285" 
d="M242 31v-31h-238v674h32v-643h206zM136 -47v-83h-31v83h31z" />
    <glyph glyph-name="nacute" unicode="&#x144;" horiz-adv-x="360" 
d="M300 0h-26l-233 577v-577h-32v674h27l232 -577v577h32v-674zM230 807l-120 -83h-48l120 83h48z" />
    <glyph glyph-name="ncaron" unicode="&#x148;" horiz-adv-x="360" 
d="M300 0h-26l-233 577v-577h-32v674h27l232 -577v577h32v-674zM150 747l50 60h38l-68 -83h-40l-68 83h38z" />
    <glyph glyph-name="ncommaaccent" unicode="&#x146;" horiz-adv-x="360" 
d="M300 0h-26l-233 577v-577h-32v674h27l232 -577v577h32v-674zM182 -47v-83h-31v83h31z" />
    <glyph glyph-name="obreve" unicode="&#x14f;" 
d="M10 179v317c0 115 48 178 143 178c96 0 144 -62 144 -178v-317c0 -75 -19 -118 -47 -145s-64 -34 -97 -34c-32 0 -68 7 -96 34s-47 70 -47 145zM41 496v-317c0 -101 37 -148 112 -148c73 0 112 44 112 148v317c0 103 -37 147 -112 147c-76 0 -112 -47 -112 -147zM148 755
c53 0 56 21 56 40h36c0 -65 -71 -71 -92 -71s-92 6 -92 71h36c0 -19 3 -40 56 -40z" />
    <glyph glyph-name="omacron" unicode="&#x14d;" 
d="M10 179v317c0 115 48 178 143 178c96 0 144 -62 144 -178v-317c0 -75 -19 -118 -47 -145s-64 -34 -97 -34c-32 0 -68 7 -96 34s-47 70 -47 145zM41 496v-317c0 -101 37 -148 112 -148c73 0 112 44 112 148v317c0 103 -37 147 -112 147c-76 0 -112 -47 -112 -147zM234 755
v-31h-176v31h176z" />
    <glyph glyph-name="oslashacute" unicode="&#x1ff;" 
d="M10 179v317c0 115 48 178 143 178c96 0 144 -62 144 -178v-317c0 -75 -19 -118 -47 -145s-64 -34 -97 -34c-32 0 -68 7 -96 34s-47 70 -47 145zM41 496v-317c0 -101 37 -148 112 -148c73 0 112 44 112 148v317c0 103 -37 147 -112 147c-76 0 -112 -47 -112 -147zM45 0
h-34l270 674h34z" />
    <glyph glyph-name="racute" unicode="&#x155;" horiz-adv-x="348" 
d="M290 188v-187h-32v187c0 81 -46 128 -126 128h-90v-315h-31v674h141c108 0 146 -56 146 -179c0 -60 -12 -105 -37 -134c-11 -13 -34 -23 -50 -31c13 -6 24 -14 34 -24c30 -29 45 -68 45 -119zM42 643v-295h90c89 0 135 44 135 148c0 105 -26 147 -115 147h-110zM227 807
l-120 -83h-48l120 83h48z" />
    <glyph glyph-name="rcaron" unicode="&#x159;" horiz-adv-x="348" 
d="M290 188v-187h-32v187c0 81 -46 128 -126 128h-90v-315h-31v674h141c108 0 146 -56 146 -179c0 -60 -12 -105 -37 -134c-11 -13 -34 -23 -50 -31c13 -6 24 -14 34 -24c30 -29 45 -68 45 -119zM42 643v-295h90c89 0 135 44 135 148c0 105 -26 147 -115 147h-110zM131 747
l50 60h38l-68 -83h-40l-68 83h38z" />
    <glyph glyph-name="rcommaaccent" unicode="&#x157;" horiz-adv-x="348" 
d="M290 188v-187h-32v187c0 81 -46 128 -126 128h-90v-315h-31v674h141c108 0 146 -56 146 -179c0 -60 -12 -105 -37 -134c-11 -13 -34 -23 -50 -31c13 -6 24 -14 34 -24c30 -29 45 -68 45 -119zM42 643v-295h90c89 0 135 44 135 148c0 105 -26 147 -115 147h-110zM163 -47
v-83h-31v83h31z" />
    <glyph glyph-name="sacute" unicode="&#x15b;" horiz-adv-x="348" 
d="M10 179v15h31v-15c0 -67 17 -103 39 -123s50 -24 74 -24c72 0 113 30 113 119c0 150 -257 191 -257 365c0 101 52 159 144 159c95 0 145 -63 145 -179v-16h-32v16c0 101 -37 147 -113 147c-72 0 -113 -37 -113 -124c0 -160 258 -192 258 -365c0 -100 -52 -153 -145 -153
c-96 0 -144 59 -144 178zM230 807l-120 -83h-48l120 83h48z" />
    <glyph glyph-name="scedilla" unicode="&#x15f;" horiz-adv-x="348" 
d="M10 179v15h31v-15c0 -67 17 -103 39 -123s50 -24 74 -24c72 0 113 30 113 119c0 150 -257 191 -257 365c0 101 52 159 144 159c95 0 145 -63 145 -179v-16h-32v16c0 101 -37 147 -113 147c-72 0 -113 -37 -113 -124c0 -160 258 -192 258 -365c0 -100 -52 -153 -145 -153
c-96 0 -144 59 -144 178zM166 7v-54s81 6 81 -52c0 -82 -147 -57 -147 -46v24s104 -26 116 18c8 30 -33 28 -79 28v82h29z" />
    <glyph glyph-name="scircumflex" unicode="&#x15d;" horiz-adv-x="348" 
d="M10 179v15h31v-15c0 -67 17 -103 39 -123s50 -24 74 -24c72 0 113 30 113 119c0 150 -257 191 -257 365c0 101 52 159 144 159c95 0 145 -63 145 -179v-16h-32v16c0 101 -37 147 -113 147c-72 0 -113 -37 -113 -124c0 -160 258 -192 258 -365c0 -100 -52 -153 -145 -153
c-96 0 -144 59 -144 178zM63 724l68 83h40l68 -83h-38l-50 59l-50 -59h-38z" />
    <glyph glyph-name="tcaron" unicode="&#x165;" horiz-adv-x="351" 
d="M5 643v32h294v-32h-132v-642h-31v642h-131zM154 747l50 60h38l-68 -83h-40l-68 83h38z" />
    <glyph glyph-name="tcommaaccent" unicode="&#x163;" horiz-adv-x="351" 
d="M5 643v32h294v-32h-132v-642h-31v642h-131zM168 -47v-83h-31v83h31z" />
    <glyph glyph-name="ubreve" unicode="&#x16d;" horiz-adv-x="359" 
d="M2 166v509h31v-509c0 -85 28 -134 113 -134c89 0 112 57 112 134v509h31v-509c0 -101 -42 -165 -143 -165c-105 0 -144 69 -144 165zM143 755c53 0 56 21 56 40h36c0 -65 -71 -71 -92 -71s-92 6 -92 71h36c0 -19 3 -40 56 -40z" />
    <glyph glyph-name="umacron" unicode="&#x16b;" horiz-adv-x="359" 
d="M2 166v509h31v-509c0 -85 28 -134 113 -134c89 0 112 57 112 134v509h31v-509c0 -101 -42 -165 -143 -165c-105 0 -144 69 -144 165zM235 755v-31h-176v31h176z" />
    <glyph glyph-name="uring" unicode="&#x16f;" horiz-adv-x="359" 
d="M2 675v-509c0 -96 39 -165 144 -165c101 0 143 64 143 165v509h-31v-509c0 -77 -23 -134 -112 -134c-85 0 -113 49 -113 134v509h-31zM98 764c0 24 20 44 44 44s44 -20 44 -44s-20 -44 -44 -44s-44 20 -44 44zM125 764c0 -9 7 -16 16 -16s16 7 16 16s-7 16 -16 16
s-16 -7 -16 -16z" />
    <glyph glyph-name="utilde" unicode="&#x169;" horiz-adv-x="359" 
d="M2 166v509h31v-509c0 -85 28 -134 113 -134c89 0 112 57 112 134v509h31v-509c0 -101 -42 -165 -143 -165c-105 0 -144 69 -144 165zM51 722h-41c40 79 111 70 139 40c25 -27 75 -40 91 0h41c-34 -75 -114 -61 -141 -33c-22 23 -60 36 -89 -7z" />
    <glyph glyph-name="wacute" unicode="&#x1e83;" horiz-adv-x="510" 
d="M246 674l99 -585l87 585h33l-107 -674h-26l-99 585l-99 -585h-25l-109 674h32l90 -585l99 585h25zM317 807l-120 -83h-48l120 83h48z" />
    <glyph glyph-name="wcircumflex" unicode="&#x175;" horiz-adv-x="510" 
d="M246 674l99 -585l87 585h33l-107 -674h-26l-99 585l-99 -585h-25l-109 674h32l90 -585l99 585h25zM146 724l68 83h40l68 -83h-38l-50 59l-50 -59h-38z" />
    <glyph glyph-name="wdieresis" unicode="&#x1e85;" horiz-adv-x="510" 
d="M246 674l99 -585l87 585h33l-107 -674h-26l-99 585l-99 -585h-25l-109 674h32l90 -585l99 585h25zM176 767v-43h-32v43h32zM323 767v-43h-32v43h32z" />
    <glyph glyph-name="wgrave" unicode="&#x1e81;" horiz-adv-x="510" 
d="M246 674l99 -585l87 585h33l-107 -674h-26l-99 585l-99 -585h-25l-109 674h32l90 -585l99 585h25zM269 724l-120 83h48l120 -83h-48z" />
    <glyph glyph-name="ycircumflex" unicode="&#x177;" 
d="M26 674l127 -291l127 291h36l-147 -341v-333h-31v333l-148 341h36zM65 724l68 83h40l68 -83h-38l-50 59l-50 -59h-38z" />
    <glyph glyph-name="ygrave" unicode="&#x1ef3;" 
d="M26 674l127 -291l127 291h36l-147 -341v-333h-31v333l-148 341h36zM189 724l-120 83h48l120 -83h-48z" />
    <glyph glyph-name="zacute" unicode="&#x17a;" horiz-adv-x="361" 
d="M298 674v-29l-258 -614h253v-31h-288v31l257 612h-262v31h298zM236 807l-120 -83h-48l120 83h48z" />
    <glyph glyph-name="zcaron" unicode="&#x17e;" horiz-adv-x="369" 
d="M298 674v-29l-258 -614h253v-31h-288v31l257 612h-262v31h298zM144 747l50 60h38l-68 -83h-40l-68 83h38z" />
    <glyph glyph-name="zdotaccent" unicode="&#x17c;" horiz-adv-x="361" 
d="M298 674v-29l-258 -614h253v-31h-288v31l257 612h-262v31h298zM160 759v-43h-32v43h32z" />
    <glyph glyph-name="thorn" unicode="&#xfe;" horiz-adv-x="336" 
d="M34 195v-195h-31v674h31v-189h132c115 0 170 -60 170 -145c0 -84 -58 -145 -170 -145h-132zM34 454v-227h132c99 0 139 51 139 113c0 63 -40 114 -139 114h-132z" />
    <glyph glyph-name="multiply" unicode="&#xd7;" horiz-adv-x="244" 
d="M8 418l22 22l75 -75l75 75l22 -22l-75 -75l75 -75l-22 -22l-75 75l-75 -75l-22 22l75 75z" />
    <glyph glyph-name="divide" unicode="&#xf7;" horiz-adv-x="113" 
d="M45 514v-76h-31v76h31zM14 239h31v-76h-31v76z" />
    <glyph glyph-name="Euro" unicode="&#x20ac;" horiz-adv-x="320" 
d="M222 242v-31h-162v-32c0 -80 35 -148 122 -148c68 0 94 49 94 49l29 -21s-36 -59 -123 -59c-66 0 -154 31 -154 179v32h-60v31h60v149h-60v31h60v74c0 147 88 178 154 178c87 0 115 -47 115 -47l-21 -24s-18 40 -94 40c-91 0 -122 -73 -122 -147v-74h162v-31h-162v-149
h162z" />
    <glyph glyph-name="germandbls" unicode="&#xdf;" horiz-adv-x="326" 
d="M32 463v-463h-32v474c-4 199 105 200 130 200c100 0 131 -69 131 -165c0 -109 -47 -165 -90 -170c66 -11 125 -63 125 -166c0 -136 -68 -173 -169 -173h-7v31h7c83 0 137 27 137 142c0 116 -82 149 -144 149v31c68 0 109 54 109 156c0 81 -18 134 -101 134
c-43 0 -96 -23 -96 -180z" />
    <glyph glyph-name="copyright" unicode="&#xa9;" horiz-adv-x="659" 
d="M12 340c0 186 119 337 306 337s308 -151 308 -337s-121 -337 -308 -337s-306 151 -306 337zM41 340c0 -171 106 -309 277 -309c170 0 279 138 279 309c0 170 -109 307 -279 307c-171 0 -277 -137 -277 -307zM418 247v-19c0 -98 -59 -118 -102 -118
c-44 0 -102 20 -102 118v219c0 97 58 117 102 117c43 0 102 -20 102 -117v-20h-30v20c0 47 -21 88 -72 88c-53 0 -72 -44 -72 -88v-219c0 -48 21 -89 72 -89s72 45 72 89v19h30z" />
    <glyph glyph-name="registered" unicode="&#xae;" horiz-adv-x="673" 
d="M12 340c0 186 119 337 306 337s308 -151 308 -337s-121 -337 -308 -337s-306 151 -306 337zM41 340c0 -171 106 -309 277 -309c170 0 279 138 279 309c0 170 -109 307 -279 307c-171 0 -277 -137 -277 -307zM245 561h77c63 0 85 -33 85 -103c0 -44 -8 -90 -34 -106
c26 -12 32 -39 32 -63v-147h-28v144c0 40 -19 52 -60 52h-45v-196h-27v419zM272 365h45c49 0 63 42 63 93c0 53 -18 75 -63 75h-45v-168z" />
    <glyph glyph-name="trademark" unicode="&#x2122;" horiz-adv-x="368" 
d="M-5 643v32h154v-32h-62v-159h-31v159h-61zM257 484h-24l-27 92v-92h-31v190h33l37 -127l36 127h34v-190h-32v92z" />
    </font>
</defs>
</svg>
